<svg width="55" height="54" viewBox="0 0 55 54" fill="none" xmlns="http://www.w3.org/2000/svg">
<rect x="2.98047" y="6.5" width="45" height="45" rx="22.5" fill="white" fill-opacity="0.05" stroke="white"/>
<g filter="url(#filter0_f_711_1048)">
<rect x="4.98047" y="4.5" width="45" height="45" rx="22.5" stroke="#4377F8"/>
</g>
<g clip-path="url(#clip0_711_1048)">
<path d="M33.7979 21.493C32.2679 20.803 30.6279 20.293 28.9129 20.003C28.8977 20 28.8819 20.0019 28.8677 20.0084C28.8536 20.0148 28.8418 20.0255 28.8339 20.039C28.6239 20.408 28.3899 20.889 28.2259 21.269C26.407 20.9972 24.5579 20.9972 22.7389 21.269C22.5563 20.8478 22.3503 20.4372 22.1219 20.039C22.1142 20.0253 22.1025 20.0144 22.0884 20.0076C22.0743 20.0008 22.0584 19.9985 22.0429 20.001C20.3289 20.291 18.6889 20.801 17.1579 21.492C17.1448 21.4975 17.1336 21.5069 17.1259 21.519C14.0139 26.094 13.1609 30.556 13.5799 34.962C13.5811 34.9727 13.5845 34.9832 13.5898 34.9926C13.5951 35.0021 13.6023 35.0104 13.6109 35.017C15.4273 36.3394 17.4533 37.3468 19.6039 37.997C19.6189 38.0016 19.635 38.0016 19.65 37.9969C19.6649 37.9923 19.6782 37.9832 19.6879 37.9709C20.1499 37.3509 20.5619 36.6959 20.9139 36.0079C20.9349 35.9679 20.9149 35.9199 20.8729 35.9039C20.227 35.6607 19.601 35.3671 19.0009 35.0259C18.9902 35.0198 18.9811 35.0111 18.9745 35.0005C18.9679 34.99 18.9641 34.978 18.9633 34.9656C18.9625 34.9532 18.9648 34.9408 18.97 34.9295C18.9751 34.9183 18.983 34.9084 18.9929 34.9009C19.1189 34.8079 19.2449 34.711 19.3649 34.614C19.3758 34.6052 19.3888 34.5997 19.4025 34.5979C19.4163 34.5961 19.4303 34.5982 19.4429 34.604C23.3699 36.368 27.6229 36.368 31.504 34.604C31.5166 34.5979 31.5308 34.5955 31.5447 34.5971C31.5587 34.5987 31.5719 34.6042 31.5829 34.6129C31.7029 34.7109 31.8279 34.8079 31.955 34.9009C31.965 34.9083 31.973 34.918 31.9783 34.9292C31.9837 34.9403 31.9862 34.9527 31.9856 34.9651C31.985 34.9774 31.9813 34.9895 31.9749 35.0001C31.9685 35.0107 31.9596 35.0196 31.9489 35.0259C31.351 35.3699 30.7289 35.661 30.0759 35.903C30.0659 35.9066 30.0568 35.9123 30.0492 35.9198C30.0415 35.9272 30.0356 35.9362 30.0317 35.9462C30.0278 35.9561 30.0261 35.9668 30.0266 35.9774C30.0272 35.9881 30.03 35.9985 30.035 36.0079C30.395 36.695 30.8069 37.3489 31.2599 37.9699C31.2694 37.9827 31.2825 37.9922 31.2975 37.9972C31.3126 38.0022 31.3288 38.0025 31.344 37.9979C33.4983 37.3496 35.5276 36.3417 37.3459 35.017C37.3548 35.0107 37.3623 35.0027 37.3678 34.9934C37.3733 34.9841 37.3768 34.9737 37.3779 34.9629C37.8779 29.8689 36.5399 25.443 33.8289 21.521C33.8223 21.5082 33.8113 21.4983 33.7979 21.493ZM21.5009 32.2789C20.3189 32.2789 19.3439 31.2099 19.3439 29.8989C19.3439 28.5869 20.2999 27.5189 21.5009 27.5189C22.7109 27.5189 23.6769 28.5959 23.6579 29.8989C23.6579 31.2109 22.702 32.2789 21.5009 32.2789ZM29.4759 32.2789C28.2929 32.2789 27.3189 31.2099 27.3189 29.8989C27.3189 28.5869 28.2739 27.5189 29.4759 27.5189C30.6859 27.5189 31.6519 28.5959 31.6329 29.8989C31.6329 31.2109 30.6869 32.2789 29.4759 32.2789Z" fill="white"/>
</g>
<defs>
<filter id="filter0_f_711_1048" x="0.480469" y="0" width="54" height="54" filterUnits="userSpaceOnUse" color-interpolation-filters="sRGB">
<feFlood flood-opacity="0" result="BackgroundImageFix"/>
<feBlend mode="normal" in="SourceGraphic" in2="BackgroundImageFix" result="shape"/>
<feGaussianBlur stdDeviation="2" result="effect1_foregroundBlur_711_1048"/>
</filter>
<clipPath id="clip0_711_1048">
<rect width="24" height="24" fill="white" transform="translate(13.4805 17)"/>
</clipPath>
</defs>
</svg>
