<svg width="55" height="54" viewBox="0 0 55 54" fill="none" xmlns="http://www.w3.org/2000/svg">
<rect x="2.98047" y="6.5" width="45" height="45" rx="22.5" fill="white" fill-opacity="0.05" stroke="white"/>
<g filter="url(#filter0_f_711_1041)">
<rect x="4.98047" y="4.5" width="45" height="45" rx="22.5" stroke="#4377F8"/>
</g>
<path d="M25.4796 25.8753C23.7593 25.8753 22.3554 27.2792 22.3554 28.9995C22.3554 30.7198 23.7593 32.1237 25.4796 32.1237C27.1999 32.1237 28.6038 30.7198 28.6038 28.9995C28.6038 27.2792 27.1999 25.8753 25.4796 25.8753ZM34.8499 28.9995C34.8499 27.7058 34.8616 26.4237 34.789 25.1323C34.7163 23.6323 34.3741 22.3011 33.2773 21.2042C32.178 20.105 30.8491 19.7652 29.3491 19.6925C28.0554 19.6198 26.7734 19.6316 25.4819 19.6316C24.1882 19.6316 22.9062 19.6198 21.6148 19.6925C20.1148 19.7652 18.7835 20.1073 17.6866 21.2042C16.5874 22.3034 16.2476 23.6323 16.1749 25.1323C16.1023 26.4261 16.114 27.7081 16.114 28.9995C16.114 30.2909 16.1023 31.5753 16.1749 32.8667C16.2476 34.3667 16.5898 35.698 17.6866 36.7948C18.7859 37.8941 20.1148 38.2339 21.6148 38.3066C22.9085 38.3792 24.1905 38.3675 25.4819 38.3675C26.7757 38.3675 28.0577 38.3792 29.3491 38.3066C30.8491 38.2339 32.1804 37.8917 33.2773 36.7948C34.3765 35.6956 34.7163 34.3667 34.789 32.8667C34.864 31.5753 34.8499 30.2933 34.8499 28.9995V28.9995ZM25.4796 33.8066C22.8194 33.8066 20.6726 31.6597 20.6726 28.9995C20.6726 26.3394 22.8194 24.1925 25.4796 24.1925C28.1398 24.1925 30.2866 26.3394 30.2866 28.9995C30.2866 31.6597 28.1398 33.8066 25.4796 33.8066ZM30.4835 25.1183C29.8624 25.1183 29.3609 24.6167 29.3609 23.9956C29.3609 23.3745 29.8624 22.873 30.4835 22.873C31.1046 22.873 31.6062 23.3745 31.6062 23.9956C31.6064 24.1431 31.5774 24.2892 31.5211 24.4255C31.4647 24.5618 31.382 24.6856 31.2778 24.7899C31.1735 24.8942 31.0496 24.9768 30.9134 25.0332C30.7771 25.0895 30.631 25.1185 30.4835 25.1183V25.1183Z" fill="white"/>
<defs>
<filter id="filter0_f_711_1041" x="0.480469" y="0" width="54" height="54" filterUnits="userSpaceOnUse" color-interpolation-filters="sRGB">
<feFlood flood-opacity="0" result="BackgroundImageFix"/>
<feBlend mode="normal" in="SourceGraphic" in2="BackgroundImageFix" result="shape"/>
<feGaussianBlur stdDeviation="2" result="effect1_foregroundBlur_711_1041"/>
</filter>
</defs>
</svg>
