<svg width="35" height="35" viewBox="0 0 35 35" fill="none" xmlns="http://www.w3.org/2000/svg">
<g clip-path="url(#clip0_604_1237)">
<path d="M34.9999 4.86669C34.9999 3.34354 34.5657 2.13817 33.7097 1.28477C30.273 -2.1391 21.2373 1.50161 13.1356 9.576C12.8412 9.86945 12.5722 10.1823 12.3134 10.5028C12.2285 10.4677 12.1308 10.4363 12.0184 10.4102C9.68511 9.86491 2.19653 11.1371 0.0165217 19.8465C-0.0395815 20.0697 0.0501545 20.3036 0.240795 20.4323C0.333217 20.4953 0.440028 20.5263 0.546826 20.5263C0.659483 20.5263 0.772193 20.4916 0.867787 20.4222C3.82671 18.2758 6.20047 17.4125 8.27264 17.7303C8.12964 17.9896 7.98449 18.2424 7.83459 18.4841C7.7005 18.7004 7.73309 18.9802 7.91307 19.1597L8.77117 20.015L7.16489 21.6153C7.0618 21.7178 7.00411 21.8572 7.00411 22.0025C7.00411 22.1477 7.0618 22.2871 7.16489 22.3897L12.5402 27.7473C12.647 27.8536 12.7863 27.907 12.9263 27.907C13.0662 27.907 13.2056 27.8536 13.3124 27.7473L14.9208 26.1441L15.7813 27.0018C15.8871 27.107 16.0265 27.1615 16.1675 27.1615C16.2663 27.1615 16.3656 27.1347 16.4543 27.0803C16.6803 26.9409 16.9149 26.8055 17.1563 26.6722C17.5123 28.7547 16.65 31.1435 14.4692 34.1304C14.3335 34.3162 14.3287 34.5672 14.4569 34.7579C14.5599 34.9117 14.7314 34.9998 14.9108 34.9998C14.9546 34.9998 14.9989 34.9945 15.0427 34.9838C23.7602 32.8161 25.0483 25.3537 24.511 23.0262C24.4782 22.8842 24.4352 22.7724 24.3886 22.6732C24.7361 22.3986 25.0748 22.1117 25.3912 21.7963C31.2284 15.9788 34.9999 9.33302 34.9999 4.86669ZM8.78145 16.7062C6.64787 16.2565 4.30337 16.8819 1.51933 18.6545C2.88865 14.8547 5.38273 13.0596 7.33951 12.2142C8.80655 11.5808 10.1417 11.4035 10.9962 11.4035C11.2253 11.4035 11.4191 11.4163 11.5724 11.4361L8.78145 16.7062ZM12.9263 26.5879L8.3259 22.0025L9.54571 20.7875L13.5201 24.7481L14.1461 25.3718L12.9263 26.5879ZM22.7134 27.6571C21.8675 29.6165 20.0656 32.1132 16.2401 33.482C18.0153 30.7097 18.6428 28.3748 18.1926 26.2472L23.483 23.4636C23.578 24.1825 23.5086 25.8146 22.7134 27.6571ZM18.9707 24.5355C18.0089 24.9985 17.093 25.4386 16.2524 25.9267L8.98866 18.6875C9.38093 18.0159 9.74357 17.2864 10.1108 16.5329L12.3316 12.34C12.7964 11.6205 13.3113 10.945 13.9079 10.3504C21.3195 2.9633 30.0327 -0.83333 32.9374 2.05915C33.5804 2.70003 33.9062 3.64476 33.9062 4.86669C33.9062 8.99281 30.1737 15.4854 24.6189 21.0219C23.0718 22.5637 20.9868 23.5662 18.9707 24.5355Z" fill="white"/>
<path d="M23.3651 7.02946C22.7419 7.64951 22.3984 8.47463 22.3984 9.35259C22.3984 10.2311 22.7419 11.0563 23.3651 11.6763C24.0076 12.3156 24.8514 12.6355 25.6952 12.6355C26.539 12.6355 27.3828 12.3156 28.0247 11.6763C28.648 11.0563 28.9909 10.2311 28.9909 9.35259C28.9909 8.47463 28.648 7.64951 28.0247 7.02946C26.7409 5.75092 24.65 5.75092 23.3651 7.02946ZM27.2536 10.9008C26.3937 11.7564 24.9961 11.7564 24.1363 10.9008C23.7213 10.4875 23.4922 9.93791 23.4922 9.35259C23.4922 8.76781 23.7213 8.21826 24.1363 7.80488C24.5662 7.37711 25.1307 7.1635 25.6952 7.1635C26.2597 7.1635 26.8236 7.37711 27.2536 7.80488C27.6685 8.21826 27.8971 8.76781 27.8971 9.35259C27.8971 9.93791 27.6685 10.4875 27.2536 10.9008Z" fill="white"/>
<path d="M9.00559 25.7833C8.79253 25.5691 8.44647 25.5691 8.23231 25.7823L2.76625 31.2302C2.55258 31.4432 2.55154 31.7893 2.76516 32.0035C2.87195 32.1108 3.0119 32.1642 3.15234 32.1642C3.29173 32.1642 3.43168 32.1108 3.53848 32.0046L9.00455 26.5566C9.21816 26.3435 9.21926 25.9975 9.00559 25.7833Z" fill="white"/>
<path d="M3.12482 28.4232C3.26421 28.4232 3.4041 28.3698 3.51097 28.2635L7.1105 24.6758C7.32411 24.4626 7.32465 24.1166 7.11153 23.9024C6.89847 23.6883 6.55241 23.6877 6.33825 23.9013L2.73867 27.4891C2.52506 27.7022 2.52451 28.0483 2.73763 28.2625C2.84443 28.3698 2.98438 28.4232 3.12482 28.4232Z" fill="white"/>
<path d="M10.1194 27.663L6.51992 31.2509C6.30631 31.4639 6.30576 31.81 6.51888 32.0242C6.62568 32.1315 6.76557 32.1849 6.90607 32.1849C7.04541 32.1849 7.18536 32.1315 7.29216 32.0252L10.8917 28.4375C11.1054 28.2244 11.1059 27.8783 10.8928 27.6641C10.6797 27.45 10.3336 27.4494 10.1194 27.663Z" fill="white"/>
</g>
<defs>
<clipPath id="clip0_604_1237">
<rect width="35" height="35" fill="white"/>
</clipPath>
</defs>
</svg>
