<svg width="514" height="513" viewBox="0 0 514 513" fill="none" xmlns="http://www.w3.org/2000/svg" style="">
<path d="M257.321 6V139.006C233.128 139.006 209.479 146.161 189.363 159.566C169.247 172.971 153.569 192.025 144.311 214.317C135.053 236.609 132.631 261.138 137.35 284.803C142.07 308.468 153.72 330.206 170.827 347.268C187.934 364.329 209.729 375.948 233.457 380.656C257.185 385.363 281.78 382.947 304.131 373.713C326.482 364.48 345.586 348.843 359.027 328.781C372.467 308.718 379.641 285.132 379.641 261.003H513" stroke="#4377F8" stroke-linecap="round" stroke-linejoin="round" class="OzVhRfQZ_0"></path>
<path d="M204.333 62L208 75.7765C191.892 80.12 176.425 86.5838 162 95" stroke="#4377F8" stroke-linecap="round" stroke-linejoin="round" class="OzVhRfQZ_1"></path>
<path d="M210 62.5C210 61.4122 209.648 60.3488 208.989 59.4444C208.329 58.5399 207.392 57.835 206.296 57.4187C205.2 57.0024 203.993 56.8935 202.829 57.1057C201.666 57.3179 200.596 57.8417 199.757 58.6109C198.918 59.3801 198.347 60.3601 198.115 61.427C197.884 62.4939 198.003 63.5998 198.457 64.6048C198.911 65.6098 199.68 66.4687 200.667 67.0731C201.653 67.6774 202.813 68 204 68C205.591 68 207.117 67.4205 208.243 66.3891C209.368 65.3576 210 63.9587 210 62.5Z" fill="#4377F8" class="OzVhRfQZ_2"></path>
<path d="M162 101C165.314 101 168 98.5376 168 95.5C168 92.4625 165.314 90 162 90C158.686 90 156 92.4625 156 95.5C156 98.5376 158.686 101 162 101Z" fill="#4377F8" class="OzVhRfQZ_3"></path>
<path d="M26 153L97 186" stroke="#4377F8" stroke-linecap="round" stroke-linejoin="round" class="OzVhRfQZ_4"></path>
<path d="M31.9999 153.025C32.0049 151.837 31.6573 150.675 31.001 149.685C30.3448 148.695 29.4095 147.922 28.3136 147.464C27.2177 147.006 26.0105 146.884 24.8449 147.112C23.6794 147.341 22.6079 147.91 21.7663 148.748C20.9246 149.587 20.3507 150.656 20.1171 151.82C19.8836 152.985 20.0009 154.192 20.4543 155.29C20.9077 156.388 21.6767 157.327 22.664 157.987C23.6512 158.647 24.8122 159 25.9999 159C27.5849 158.993 29.1034 158.363 30.2264 157.244C31.3495 156.126 31.9867 154.61 31.9999 153.025Z" fill="#4377F8" class="OzVhRfQZ_5"></path>
<path d="M97 192C100.314 192 103 189.538 103 186.5C103 183.462 100.314 181 97 181C93.6863 181 91 183.462 91 186.5C91 189.538 93.6863 192 97 192Z" fill="#4377F8" class="OzVhRfQZ_6"></path>
<path d="M62 425L146 354.437C128.271 333.308 116.941 307.545 113.347 280.184C109.752 252.822 114.042 225.002 125.711 200" stroke="#4377F8" stroke-linecap="round" stroke-linejoin="round" class="OzVhRfQZ_7"></path>
<path d="M67.9999 425C67.9999 423.812 67.6474 422.651 66.987 421.664C66.3266 420.677 65.3881 419.908 64.2902 419.454C63.1924 419.001 61.9847 418.884 60.8202 419.117C59.6556 419.351 58.5866 419.925 57.7485 420.766C56.9104 421.608 56.3409 422.679 56.1122 423.845C55.8836 425.01 56.006 426.218 56.464 427.314C56.922 428.409 57.6949 429.345 58.6849 430.001C59.6749 430.657 60.8375 431.005 62.0252 431C62.8119 431 63.5909 430.845 64.3175 430.543C65.044 430.241 65.7038 429.799 66.2589 429.241C66.8141 428.684 67.2536 428.022 67.5524 427.294C67.8512 426.566 68.0033 425.787 67.9999 425Z" fill="#4377F8" class="OzVhRfQZ_8"></path>
<path d="M126 206C129.314 206 132 203.314 132 200C132 196.686 129.314 194 126 194C122.686 194 120 196.686 120 200C120 203.314 122.686 206 126 206Z" fill="#4377F8" class="OzVhRfQZ_9"></path>
<path d="M6 305L80 292.028C78.2091 281.781 77.3048 271.4 77.2971 261" stroke="#4377F8" stroke-linecap="round" stroke-linejoin="round" class="OzVhRfQZ_10"></path>
<path d="M83 261.025C83.0045 259.837 82.6858 258.675 82.0843 257.685C81.4827 256.695 80.6254 255.922 79.6208 255.464C78.6162 255.006 77.5096 254.884 76.4412 255.112C75.3727 255.341 74.3906 255.91 73.6191 256.748C72.8476 257.587 72.3215 258.656 72.1074 259.82C71.8933 260.985 72.0008 262.192 72.4164 263.29C72.832 264.388 73.537 265.327 74.4419 265.987C75.3469 266.647 76.4112 267 77.4999 267C78.9546 267 80.3501 266.371 81.3809 265.252C82.4117 264.132 82.9938 262.612 83 261.025Z" fill="#4377F8" class="OzVhRfQZ_11"></path>
<path d="M5.99998 311C9.31369 311 12 308.538 12 305.5C12 302.462 9.31369 300 5.99998 300C2.68628 300 0 302.462 0 305.5C0 308.538 2.68628 311 5.99998 311Z" fill="#4377F8" class="OzVhRfQZ_12"></path>
<path d="M37 389L112 345" stroke="#4377F8" stroke-linecap="round" stroke-linejoin="round" class="OzVhRfQZ_13"></path>
<path d="M36.5 394C39.5376 394 42 391.538 42 388.5C42 385.462 39.5376 383 36.5 383C33.4624 383 31 385.462 31 388.5C31 391.538 33.4624 394 36.5 394Z" fill="#4377F8" class="OzVhRfQZ_14"></path>
<path d="M118 345C118 343.812 117.647 342.651 116.987 341.664C116.327 340.677 115.388 339.908 114.29 339.454C113.192 339.001 111.985 338.884 110.82 339.117C109.656 339.351 108.587 339.925 107.748 340.766C106.91 341.608 106.341 342.679 106.112 343.845C105.884 345.01 106.006 346.218 106.464 347.314C106.922 348.41 107.695 349.345 108.685 350.001C109.675 350.657 110.837 351.005 112.025 351C112.812 351 113.591 350.845 114.317 350.543C115.044 350.241 115.704 349.799 116.259 349.241C116.814 348.684 117.254 348.022 117.552 347.294C117.851 346.566 118.003 345.787 118 345Z" fill="#4377F8" class="OzVhRfQZ_15"></path>
<path d="M451.5 250C454.538 250 457 247.314 457 244C457 240.686 454.538 238 451.5 238C448.462 238 446 240.686 446 244C446 247.314 448.462 250 451.5 250Z" fill="#4377F8" class="OzVhRfQZ_16"></path>
<path d="M351 21.5C351 20.4122 350.648 19.3488 349.989 18.4444C349.33 17.5399 348.392 16.835 347.296 16.4187C346.2 16.0024 344.993 15.8935 343.829 16.1057C342.666 16.3179 341.596 16.8417 340.757 17.6109C339.918 18.3801 339.347 19.3601 339.115 20.427C338.884 21.4939 339.003 22.5998 339.457 23.6048C339.911 24.6098 340.68 25.4687 341.667 26.0731C342.653 26.6774 343.813 27 345 27C345.788 27 346.568 26.8577 347.296 26.5813C348.024 26.3049 348.686 25.8998 349.243 25.3891C349.8 24.8783 350.242 24.272 350.543 23.6048C350.845 22.9375 351 22.2223 351 21.5Z" fill="#4377F8" class="OzVhRfQZ_17"></path>
<path d="M344.866 21L321.249 85.6597L271.276 101.685L268 139.117C296.665 141.655 323.521 154.153 343.87 174.423C364.22 194.694 376.766 221.446 379.314 250L452 243.668" stroke="#4377F8" stroke-linecap="round" stroke-linejoin="round" class="OzVhRfQZ_18"></path>
<path d="M391 39.9747C390.995 38.7891 390.639 37.6316 389.976 36.6482C389.314 35.6648 388.375 34.8997 387.279 34.4495C386.182 33.9992 384.976 33.884 383.814 34.1184C382.652 34.3528 381.585 34.9262 380.748 35.7663C379.912 36.6064 379.343 37.6755 379.113 38.8387C378.884 40.0019 379.004 41.207 379.459 42.3019C379.914 43.3968 380.683 44.3324 381.669 44.9906C382.655 45.6487 383.814 46 385 46C385.79 46 386.572 45.844 387.302 45.5409C388.032 45.2378 388.694 44.7936 389.252 44.2337C389.809 43.6739 390.25 43.0095 390.55 42.2786C390.85 41.5477 391.003 40.7648 391 39.9747Z" fill="#4377F8" class="OzVhRfQZ_19"></path>
<path d="M489 153.4L444.022 174.36L415.364 150.737L376.42 178C364.222 160.618 348.381 146.103 330 135.469L385.117 40" stroke="#4377F8" stroke-linecap="round" stroke-linejoin="round" class="OzVhRfQZ_20"></path>
<path d="M93.5 462C96.5376 462 99 459.538 99 456.5C99 453.462 96.5376 451 93.5 451C90.4624 451 88 453.462 88 456.5C88 459.538 90.4624 462 93.5 462Z" fill="#4377F8" class="OzVhRfQZ_21"></path>
<path d="M497 348.346L432.702 325.043L421.974 275.767L390.276 273C388.233 296.255 380.077 318.566 366.63 337.69C353.183 356.814 334.917 372.078 313.668 381.95C292.418 391.821 268.934 395.951 245.573 393.926C222.213 391.9 199.799 383.79 180.583 370.411L155.493 406.069L133.939 407.695L93 456" stroke="#4377F8" stroke-linecap="round" stroke-linejoin="round" class="OzVhRfQZ_22"></path>
<path d="M400.5 292C403.538 292 406 289.538 406 286.5C406 283.462 403.538 281 400.5 281C397.462 281 395 283.462 395 286.5C395 289.538 397.462 292 400.5 292Z" fill="#4377F8" class="OzVhRfQZ_23"></path>
<path d="M155 492C155 490.813 154.677 489.653 154.073 488.667C153.469 487.68 152.61 486.911 151.605 486.457C150.6 486.003 149.494 485.884 148.427 486.115C147.36 486.347 146.38 486.918 145.611 487.757C144.842 488.596 144.318 489.666 144.106 490.829C143.893 491.993 144.002 493.2 144.419 494.296C144.835 495.392 145.54 496.329 146.444 496.989C147.349 497.648 148.412 498 149.5 498C150.959 498 152.358 497.368 153.389 496.243C154.421 495.117 155 493.591 155 492Z" fill="#4377F8" class="OzVhRfQZ_24"></path>
<path d="M237.5 39C240.538 39 243 36.3137 243 33C243 29.6863 240.538 27 237.5 27C234.462 27 232 29.6863 232 33C232 36.3137 234.462 39 237.5 39Z" fill="#4377F8" class="OzVhRfQZ_25"></path>
<path d="M255.5 12C258.538 12 261 9.31369 261 5.99998C261 2.68628 258.538 0 255.5 0C252.462 0 250 2.68628 250 5.99998C250 9.31369 252.462 12 255.5 12Z" fill="#4377F8" class="OzVhRfQZ_26"></path>
<path d="M139 156.5C139 155.411 138.647 154.347 137.987 153.442C137.327 152.537 136.388 151.832 135.29 151.416C134.192 151.001 132.985 150.893 131.82 151.107C130.656 151.321 129.587 151.848 128.748 152.619C127.91 153.391 127.341 154.373 127.112 155.441C126.884 156.51 127.006 157.616 127.464 158.621C127.922 159.625 128.695 160.483 129.685 161.084C130.675 161.686 131.837 162.005 133.025 162C133.812 162 134.591 161.858 135.317 161.581C136.044 161.304 136.704 160.899 137.259 160.388C137.814 159.877 138.254 159.27 138.552 158.603C138.851 157.936 139.003 157.221 139 156.5Z" fill="#4377F8" class="OzVhRfQZ_27"></path>
<path d="M237.895 33L241 68.0324L202.905 110.377L212.099 135.425C190.008 143.454 170.423 157.1 155.299 175L133 156.391" stroke="#4377F8" stroke-linecap="round" stroke-linejoin="round" class="OzVhRfQZ_28"></path>
<path d="M108 416C108 414.813 107.677 413.653 107.073 412.667C106.469 411.68 105.61 410.911 104.605 410.457C103.6 410.003 102.494 409.884 101.427 410.115C100.36 410.347 99.3801 410.918 98.6109 411.757C97.8417 412.596 97.3179 413.666 97.1057 414.829C96.8935 415.993 97.0024 417.2 97.4187 418.296C97.835 419.392 98.5399 420.33 99.4443 420.989C100.349 421.648 101.412 422 102.5 422C103.959 422 105.358 421.368 106.389 420.243C107.421 419.117 108 417.591 108 416Z" fill="#4377F8" class="OzVhRfQZ_29"></path>
<path d="M77 86C80.3137 86 83 83.5376 83 80.5C83 77.4625 80.3137 75 77 75C73.6863 75 71 77.4625 71 80.5C71 83.5376 73.6863 86 77 86Z" fill="#4377F8" class="OzVhRfQZ_30"></path>
<path d="M77 81L117.099 121.044L113.101 177.948L141.719 194.418C126.998 219.842 121.104 249.406 124.952 278.517C128.8 307.628 142.176 334.655 163 355.398L102.132 416" stroke="#4377F8" stroke-linecap="round" stroke-linejoin="round" class="OzVhRfQZ_31"></path>
<path d="M136 40C136 38.8133 135.648 37.6533 134.989 36.6666C134.33 35.6799 133.392 34.9109 132.296 34.4567C131.2 34.0026 129.993 33.8838 128.829 34.1153C127.666 34.3468 126.596 34.9182 125.757 35.7574C124.918 36.5965 124.347 37.6656 124.115 38.8295C123.884 39.9933 124.003 41.1998 124.457 42.2961C124.911 43.3925 125.68 44.3296 126.667 44.9888C127.653 45.6481 128.813 46 130 46C131.591 46 133.117 45.3679 134.243 44.2426C135.368 43.1174 136 41.5913 136 40Z" fill="#4377F8" class="OzVhRfQZ_32"></path>
<path d="M154.5 164C157.538 164 160 161.538 160 158.5C160 155.462 157.538 153 154.5 153C151.462 153 149 155.462 149 158.5C149 161.538 151.462 164 154.5 164Z" fill="#4377F8" class="OzVhRfQZ_33"></path>
<path d="M154.528 159C160.529 152.907 167.045 147.356 174 142.409L139.99 93.3701L148.553 72.4968L130 40" stroke="#4377F8" stroke-linecap="round" stroke-linejoin="round" class="OzVhRfQZ_34"></path>
<path d="M12 217C12 215.813 11.6481 214.653 10.9888 213.667C10.3295 212.68 9.39247 211.911 8.29611 211.457C7.19975 211.003 5.99334 210.884 4.82945 211.115C3.66557 211.347 2.59647 211.918 1.75736 212.757C0.91824 213.596 0.346802 214.666 0.11529 215.829C-0.116221 216.993 0.0026022 218.2 0.456728 219.296C0.910855 220.392 1.67988 221.33 2.66658 221.989C3.65327 222.648 4.81329 223 5.99998 223C7.59128 223 9.11743 222.368 10.2426 221.243C11.3679 220.117 12 218.591 12 217Z" fill="#4377F8" class="OzVhRfQZ_35"></path>
<path d="M85.5 387C88.5376 387 91 384.538 91 381.5C91 378.462 88.5376 376 85.5 376C82.4624 376 80 378.462 80 381.5C80 384.538 82.4624 387 85.5 387Z" fill="#4377F8" class="OzVhRfQZ_36"></path>
<path d="M6 216.643L54.473 225.223L78.2339 213L105.971 220.456C100.025 242.633 99.0062 265.847 102.985 288.462C106.964 311.077 115.844 332.542 129 351.344L85.3084 382" stroke="#4377F8" stroke-linecap="round" stroke-linejoin="round" class="OzVhRfQZ_37"></path>
<path d="M47 365C50.3137 365 53 362.314 53 359C53 355.686 50.3137 353 47 353C43.6863 353 41 355.686 41 359C41 362.314 43.6863 365 47 365Z" fill="#4377F8" class="OzVhRfQZ_38"></path>
<path d="M44 248C47.3137 248 50 245.538 50 242.5C50 239.462 47.3137 237 44 237C40.6863 237 38 239.462 38 242.5C38 245.538 40.6863 248 44 248Z" fill="#4377F8" class="OzVhRfQZ_39"></path>
<path d="M47.5322 359L68.1693 349.236L79.9032 308.421L95 304.467C91.2213 290.19 89.31 275.476 89.3146 260.699C89.3146 255.816 89.5323 250.934 89.9678 246.052L44 242" stroke="#4377F8" stroke-linecap="round" stroke-linejoin="round" class="OzVhRfQZ_40"></path>
<path d="M478.5 394C481.538 394 484 391.538 484 388.5C484 385.462 481.538 383 478.5 383C475.462 383 473 385.462 473 388.5C473 391.538 475.462 394 478.5 394Z" fill="#4377F8" class="OzVhRfQZ_41"></path>
<path d="M323.5 513C326.538 513 329 510.538 329 507.5C329 504.462 326.538 502 323.5 502C320.462 502 318 504.462 318 507.5C318 510.538 320.462 513 323.5 513Z" fill="#4377F8" class="OzVhRfQZ_42"></path>
<path d="M323.303 508L313.573 471.64L274.868 461.865L271 417.416C305.492 414.419 338.013 399.986 363.443 376.389C371.706 368.733 379.143 360.223 385.63 351L417.62 373.481L450.291 372.675L478 388.753" stroke="#4377F8" stroke-linecap="round" stroke-linejoin="round" class="OzVhRfQZ_43"></path>
<path d="M257.5 372C318.527 372 368 322.527 368 261.5C368 200.473 318.527 151 257.5 151C196.473 151 147 200.473 147 261.5C147 322.527 196.473 372 257.5 372Z" stroke="#4377F8" stroke-linecap="round" stroke-linejoin="round" class="OzVhRfQZ_44"></path>
<path d="M332.5 473C335.538 473 338 470.314 338 467C338 463.686 335.538 461 332.5 461C329.462 461 327 463.686 327 467C327 470.314 329.462 473 332.5 473Z" fill="#4377F8" class="OzVhRfQZ_45"></path>
<path d="M430 428C430 426.812 429.677 425.651 429.071 424.664C428.466 423.677 427.606 422.908 426.599 422.454C425.593 422.001 424.486 421.884 423.418 422.117C422.351 422.351 421.371 422.925 420.603 423.766C419.834 424.608 419.312 425.679 419.103 426.845C418.893 428.01 419.005 429.218 419.425 430.314C419.845 431.41 420.554 432.345 421.461 433.001C422.369 433.657 423.434 434.005 424.523 434C425.244 434 425.958 433.845 426.624 433.543C427.29 433.241 427.895 432.799 428.404 432.241C428.913 431.684 429.316 431.022 429.59 430.294C429.864 429.566 430.003 428.787 430 428Z" fill="#4377F8" class="OzVhRfQZ_46"></path>
<path d="M424 427.987L409.239 413.288L385.617 414.184L372.847 399C356.865 412.447 338.639 422.988 319 430.142L332.45 467" stroke="#4377F8" stroke-linecap="round" stroke-linejoin="round" class="OzVhRfQZ_47"></path>
<path d="M257.5 367C316.318 367 364 319.542 364 261C364 202.458 316.318 155 257.5 155C198.682 155 151 202.458 151 261C151 319.542 198.682 367 257.5 367Z" stroke="#4377F8" stroke-linecap="round" stroke-linejoin="round" class="OzVhRfQZ_48"></path>
<g clip-path="url(#clip0_735_4457)">
<path d="M176.753 308.248C186.057 324.36 229.761 316.847 275.233 290.59C320.705 264.333 349.327 230.694 340.018 214.578C330.709 198.462 287.019 205.979 241.543 232.232C196.066 258.484 167.449 292.132 176.753 308.248ZM182.113 307.101C173.415 292.057 200.857 259.923 243.353 235.372C285.849 210.822 327.404 203.135 336.102 218.203C344.8 233.271 317.381 265.391 274.857 289.941C232.333 314.492 190.81 322.179 182.113 307.101Z" fill="#4377F8" class="OzVhRfQZ_49"></path>
<path d="M241.543 290.59C287.019 316.847 330.719 324.36 340.023 308.248C349.327 292.137 320.71 258.489 275.233 232.232C229.757 205.974 186.057 198.462 176.753 214.578C167.449 230.694 196.066 264.319 241.543 290.59ZM274.857 232.885C317.381 257.436 344.8 289.551 336.102 304.619C327.404 319.687 285.877 312 243.353 287.45C200.829 262.899 173.415 230.784 182.113 215.716C190.81 200.648 232.356 208.335 274.857 232.885Z" fill="#4377F8" class="OzVhRfQZ_50"></path>
<path d="M336.727 247.916C336.727 249.748 336.183 251.538 335.165 253.062C334.147 254.585 332.701 255.772 331.008 256.473C329.315 257.174 327.453 257.357 325.656 256.999C323.86 256.641 322.209 255.759 320.914 254.463C319.619 253.167 318.737 251.516 318.381 249.72C318.024 247.923 318.208 246.06 318.909 244.368C319.611 242.676 320.799 241.23 322.323 240.212C323.846 239.195 325.638 238.653 327.47 238.654C329.925 238.655 332.28 239.631 334.016 241.368C335.751 243.105 336.727 245.46 336.727 247.916Z" fill="url(#paint0_radial_735_4457)" class="OzVhRfQZ_51"></path>
<path d="M336.727 247.916C336.727 249.748 336.183 251.538 335.165 253.062C334.147 254.585 332.701 255.772 331.008 256.473C329.315 257.174 327.453 257.357 325.656 256.999C323.86 256.641 322.209 255.759 320.914 254.463C319.619 253.167 318.737 251.516 318.381 249.72C318.024 247.923 318.208 246.06 318.909 244.368C319.611 242.676 320.799 241.23 322.323 240.212C323.846 239.195 325.638 238.653 327.47 238.654C329.925 238.655 332.28 239.631 334.016 241.368C335.751 243.105 336.727 245.46 336.727 247.916Z" fill="url(#paint1_radial_735_4457)" class="OzVhRfQZ_52"></path>
<path d="M279.543 261.413C279.543 265.598 278.302 269.688 275.978 273.167C273.653 276.646 270.349 279.358 266.483 280.959C262.617 282.56 258.363 282.979 254.259 282.163C250.155 281.347 246.386 279.332 243.427 276.373C240.468 273.414 238.453 269.644 237.637 265.541C236.821 261.437 237.24 257.183 238.841 253.317C240.442 249.451 243.154 246.147 246.633 243.822C250.112 241.498 254.202 240.257 258.387 240.257C263.998 240.257 269.379 242.486 273.346 246.453C277.314 250.421 279.543 255.802 279.543 261.413Z" fill="url(#paint2_radial_735_4457)" class="OzVhRfQZ_53"></path>
<path d="M224.699 261.413C224.699 313.923 239.781 355.784 258.389 355.784C276.997 355.784 292.065 313.923 292.065 261.413C292.065 208.903 277.021 167.037 258.389 167.037C239.758 167.037 224.699 208.903 224.699 261.413ZM291.332 261.413C291.332 310.514 277.228 350.316 259.833 350.316C242.438 350.316 228.333 310.514 228.333 261.413C228.333 212.312 242.438 172.505 259.833 172.505C277.228 172.505 291.332 212.312 291.332 261.413Z" fill="#4377F8" class="OzVhRfQZ_54"></path>
<path d="M245.102 326.927C245.103 328.759 244.56 330.55 243.543 332.074C242.526 333.598 241.08 334.786 239.387 335.487C237.695 336.189 235.833 336.373 234.036 336.016C232.239 335.659 230.588 334.778 229.292 333.483C227.997 332.188 227.114 330.537 226.756 328.74C226.399 326.944 226.582 325.081 227.283 323.389C227.984 321.696 229.171 320.249 230.694 319.231C232.217 318.213 234.008 317.67 235.84 317.67C238.295 317.67 240.65 318.645 242.387 320.381C244.124 322.117 245.1 324.472 245.102 326.927Z" fill="url(#paint3_radial_735_4457)" class="OzVhRfQZ_55"></path>
<path d="M245.102 326.927C245.103 328.759 244.56 330.55 243.543 332.074C242.526 333.598 241.08 334.786 239.387 335.487C237.695 336.189 235.833 336.373 234.036 336.016C232.239 335.659 230.588 334.778 229.292 333.483C227.997 332.188 227.114 330.537 226.756 328.74C226.399 326.944 226.582 325.081 227.283 323.389C227.984 321.696 229.171 320.249 230.694 319.231C232.217 318.213 234.008 317.67 235.84 317.67C238.295 317.67 240.65 318.645 242.387 320.381C244.124 322.117 245.1 324.472 245.102 326.927Z" fill="url(#paint4_radial_735_4457)" class="OzVhRfQZ_56"></path>
<path d="M235.484 317.915C235.065 316.481 234.515 314.393 234.139 312.884H230.105C230.547 314.765 231.163 317.238 231.648 319.033C231.817 319.598 232.879 319.654 233.947 319.344C235.014 319.033 235.62 318.469 235.484 317.915Z" fill="#4377F8" class="OzVhRfQZ_57"></path>
<path d="M222.012 208.781C222.012 210.613 221.468 212.404 220.451 213.927C219.433 215.45 217.986 216.637 216.293 217.338C214.601 218.039 212.738 218.222 210.941 217.865C209.145 217.507 207.494 216.624 206.199 215.329C204.904 214.033 204.023 212.382 203.666 210.585C203.309 208.788 203.493 206.926 204.195 205.234C204.896 203.541 206.084 202.095 207.608 201.078C209.132 200.061 210.923 199.518 212.755 199.519C215.21 199.521 217.565 200.497 219.301 202.234C221.037 203.971 222.012 206.326 222.012 208.781Z" fill="url(#paint5_radial_735_4457)" class="OzVhRfQZ_58"></path>
<path d="M222.012 208.781C222.012 210.613 221.468 212.404 220.451 213.927C219.433 215.45 217.986 216.637 216.293 217.338C214.601 218.039 212.738 218.222 210.941 217.865C209.145 217.507 207.494 216.624 206.199 215.329C204.904 214.033 204.023 212.382 203.666 210.585C203.309 208.788 203.493 206.926 204.195 205.234C204.896 203.541 206.084 202.095 207.608 201.078C209.132 200.061 210.923 199.518 212.755 199.519C215.21 199.521 217.565 200.497 219.301 202.234C221.037 203.971 222.012 206.326 222.012 208.781Z" fill="url(#paint6_radial_735_4457)" class="OzVhRfQZ_59"></path>
<path d="M322.552 252.927C321.316 254.3 320.018 255.678 318.641 257.069L319.449 258.009C320.872 256.63 322.234 255.258 323.535 253.891C323.666 253.757 323.74 253.576 323.74 253.388C323.74 253.2 323.666 253.019 323.535 252.885C323.47 252.818 323.392 252.766 323.306 252.732C323.219 252.697 323.127 252.682 323.034 252.686C322.941 252.69 322.85 252.713 322.767 252.755C322.684 252.796 322.611 252.855 322.552 252.927Z" fill="#4377F8" class="OzVhRfQZ_60"></path>
<path d="M220.846 210.497C222.498 210.88 224.179 211.304 225.891 211.771L226.187 210.76C224.454 210.259 222.747 209.798 221.067 209.378C220.818 209.312 220.555 209.576 220.493 209.886C220.472 209.949 220.464 210.016 220.471 210.083C220.478 210.149 220.498 210.213 220.532 210.271C220.565 210.329 220.61 210.379 220.665 210.418C220.719 210.457 220.781 210.484 220.846 210.497Z" fill="#4377F8" class="OzVhRfQZ_61"></path>
</g>
<defs>
<radialGradient id="paint0_radial_735_4457" cx="0" cy="0" r="1" gradientUnits="userSpaceOnUse" gradientTransform="translate(327.441 247.916) scale(9.26173 9.26174)">
<stop stop-color="#00C4FF"></stop>
<stop offset="0.15" stop-color="#01C1FB"></stop>
<stop offset="0.29" stop-color="#03B8EF"></stop>
<stop offset="0.44" stop-color="#06AADB"></stop>
<stop offset="0.58" stop-color="#0A95BF"></stop>
<stop offset="0.73" stop-color="#107B9B"></stop>
<stop offset="0.87" stop-color="#175B70"></stop>
<stop offset="1" stop-color="#1E3942"></stop>
</radialGradient>
<radialGradient id="paint1_radial_735_4457" cx="0" cy="0" r="1" gradientUnits="userSpaceOnUse" gradientTransform="translate(327.465 247.916) scale(9.26173 9.26174)">
<stop offset="0.1875" stop-color="#1444BC"></stop>
<stop offset="0.614583" stop-color="#2056DB"></stop>
<stop offset="1" stop-color="#4377F8"></stop>
<stop offset="1" stop-color="#062A84"></stop>
</radialGradient>
<radialGradient id="paint2_radial_735_4457" cx="0" cy="0" r="1" gradientUnits="userSpaceOnUse" gradientTransform="translate(258.387 261.413) scale(21.1563)">
<stop offset="0.1875" stop-color="#1444BC"></stop>
<stop offset="0.614583" stop-color="#2056DB"></stop>
<stop offset="1" stop-color="#4377F8"></stop>
<stop offset="1" stop-color="#062A84"></stop>
</radialGradient>
<radialGradient id="paint3_radial_735_4457" cx="0" cy="0" r="1" gradientUnits="userSpaceOnUse" gradientTransform="translate(235.84 326.927) scale(9.26174 9.26173)">
<stop stop-color="#00C4FF"></stop>
<stop offset="0.15" stop-color="#01C1FB"></stop>
<stop offset="0.29" stop-color="#03B8EF"></stop>
<stop offset="0.44" stop-color="#06AADB"></stop>
<stop offset="0.58" stop-color="#0A95BF"></stop>
<stop offset="0.73" stop-color="#107B9B"></stop>
<stop offset="0.87" stop-color="#175B70"></stop>
<stop offset="1" stop-color="#1E3942"></stop>
</radialGradient>
<radialGradient id="paint4_radial_735_4457" cx="0" cy="0" r="1" gradientUnits="userSpaceOnUse" gradientTransform="translate(235.84 326.932) scale(9.26174 9.26173)">
<stop offset="0.1875" stop-color="#1444BC"></stop>
<stop offset="0.614583" stop-color="#2056DB"></stop>
<stop offset="1" stop-color="#4377F8"></stop>
<stop offset="1" stop-color="#062A84"></stop>
</radialGradient>
<radialGradient id="paint5_radial_735_4457" cx="0" cy="0" r="1" gradientUnits="userSpaceOnUse" gradientTransform="translate(212.755 208.781) scale(9.26174)">
<stop stop-color="#00C4FF"></stop>
<stop offset="0.15" stop-color="#01C1FB"></stop>
<stop offset="0.29" stop-color="#03B8EF"></stop>
<stop offset="0.44" stop-color="#06AADB"></stop>
<stop offset="0.58" stop-color="#0A95BF"></stop>
<stop offset="0.73" stop-color="#107B9B"></stop>
<stop offset="0.87" stop-color="#175B70"></stop>
<stop offset="1" stop-color="#1E3942"></stop>
</radialGradient>
<radialGradient id="paint6_radial_735_4457" cx="0" cy="0" r="1" gradientUnits="userSpaceOnUse" gradientTransform="translate(212.75 208.781) scale(9.26174)">
<stop offset="0.1875" stop-color="#1444BC"></stop>
<stop offset="0.614583" stop-color="#2056DB"></stop>
<stop offset="1" stop-color="#4377F8"></stop>
<stop offset="1" stop-color="#062A84"></stop>
</radialGradient>
<clipPath id="clip0_735_4457">
<path width="166.81" height="188.784" fill="white" transform="translate(175 167)" d="M0 0 L166.81 0 L166.81 188.784 L0 188.784 Z" class="OzVhRfQZ_62"></path>
</clipPath>
</defs>
<style data-made-with="vivus-instant">.OzVhRfQZ_0{stroke-dasharray:843 845;stroke-dashoffset:844;animation:OzVhRfQZ_draw_0 7200ms linear 0ms infinite,OzVhRfQZ_fade 7200ms linear 0ms infinite;}.OzVhRfQZ_1{stroke-dasharray:65 67;stroke-dashoffset:66;animation:OzVhRfQZ_draw_1 7200ms linear 0ms infinite,OzVhRfQZ_fade 7200ms linear 0ms infinite;}.OzVhRfQZ_2{stroke-dasharray:37 39;stroke-dashoffset:38;animation:OzVhRfQZ_draw_2 7200ms linear 0ms infinite,OzVhRfQZ_fade 7200ms linear 0ms infinite;}.OzVhRfQZ_3{stroke-dasharray:37 39;stroke-dashoffset:38;animation:OzVhRfQZ_draw_3 7200ms linear 0ms infinite,OzVhRfQZ_fade 7200ms linear 0ms infinite;}.OzVhRfQZ_4{stroke-dasharray:79 81;stroke-dashoffset:80;animation:OzVhRfQZ_draw_4 7200ms linear 0ms infinite,OzVhRfQZ_fade 7200ms linear 0ms infinite;}.OzVhRfQZ_5{stroke-dasharray:38 40;stroke-dashoffset:39;animation:OzVhRfQZ_draw_5 7200ms linear 0ms infinite,OzVhRfQZ_fade 7200ms linear 0ms infinite;}.OzVhRfQZ_6{stroke-dasharray:37 39;stroke-dashoffset:38;animation:OzVhRfQZ_draw_6 7200ms linear 0ms infinite,OzVhRfQZ_fade 7200ms linear 0ms infinite;}.OzVhRfQZ_7{stroke-dasharray:275 277;stroke-dashoffset:276;animation:OzVhRfQZ_draw_7 7200ms linear 0ms infinite,OzVhRfQZ_fade 7200ms linear 0ms infinite;}.OzVhRfQZ_8{stroke-dasharray:38 40;stroke-dashoffset:39;animation:OzVhRfQZ_draw_8 7200ms linear 0ms infinite,OzVhRfQZ_fade 7200ms linear 0ms infinite;}.OzVhRfQZ_9{stroke-dasharray:38 40;stroke-dashoffset:39;animation:OzVhRfQZ_draw_9 7200ms linear 0ms infinite,OzVhRfQZ_fade 7200ms linear 0ms infinite;}.OzVhRfQZ_10{stroke-dasharray:107 109;stroke-dashoffset:108;animation:OzVhRfQZ_draw_10 7200ms linear 0ms infinite,OzVhRfQZ_fade 7200ms linear 0ms infinite;}.OzVhRfQZ_11{stroke-dasharray:37 39;stroke-dashoffset:38;animation:OzVhRfQZ_draw_11 7200ms linear 0ms infinite,OzVhRfQZ_fade 7200ms linear 0ms infinite;}.OzVhRfQZ_12{stroke-dasharray:37 39;stroke-dashoffset:38;animation:OzVhRfQZ_draw_12 7200ms linear 0ms infinite,OzVhRfQZ_fade 7200ms linear 0ms infinite;}.OzVhRfQZ_13{stroke-dasharray:87 89;stroke-dashoffset:88;animation:OzVhRfQZ_draw_13 7200ms linear 0ms infinite,OzVhRfQZ_fade 7200ms linear 0ms infinite;}.OzVhRfQZ_14{stroke-dasharray:35 37;stroke-dashoffset:36;animation:OzVhRfQZ_draw_14 7200ms linear 0ms infinite,OzVhRfQZ_fade 7200ms linear 0ms infinite;}.OzVhRfQZ_15{stroke-dasharray:38 40;stroke-dashoffset:39;animation:OzVhRfQZ_draw_15 7200ms linear 0ms infinite,OzVhRfQZ_fade 7200ms linear 0ms infinite;}.OzVhRfQZ_16{stroke-dasharray:37 39;stroke-dashoffset:38;animation:OzVhRfQZ_draw_16 7200ms linear 0ms infinite,OzVhRfQZ_fade 7200ms linear 0ms infinite;}.OzVhRfQZ_17{stroke-dasharray:37 39;stroke-dashoffset:38;animation:OzVhRfQZ_draw_17 7200ms linear 0ms infinite,OzVhRfQZ_fade 7200ms linear 0ms infinite;}.OzVhRfQZ_18{stroke-dasharray:403 405;stroke-dashoffset:404;animation:OzVhRfQZ_draw_18 7200ms linear 0ms infinite,OzVhRfQZ_fade 7200ms linear 0ms infinite;}.OzVhRfQZ_19{stroke-dasharray:38 40;stroke-dashoffset:39;animation:OzVhRfQZ_draw_19 7200ms linear 0ms infinite,OzVhRfQZ_fade 7200ms linear 0ms infinite;}.OzVhRfQZ_20{stroke-dasharray:308 310;stroke-dashoffset:309;animation:OzVhRfQZ_draw_20 7200ms linear 0ms infinite,OzVhRfQZ_fade 7200ms linear 0ms infinite;}.OzVhRfQZ_21{stroke-dasharray:35 37;stroke-dashoffset:36;animation:OzVhRfQZ_draw_21 7200ms linear 0ms infinite,OzVhRfQZ_fade 7200ms linear 0ms infinite;}.OzVhRfQZ_22{stroke-dasharray:559 561;stroke-dashoffset:560;animation:OzVhRfQZ_draw_22 7200ms linear 0ms infinite,OzVhRfQZ_fade 7200ms linear 0ms infinite;}.OzVhRfQZ_23{stroke-dasharray:35 37;stroke-dashoffset:36;animation:OzVhRfQZ_draw_23 7200ms linear 0ms infinite,OzVhRfQZ_fade 7200ms linear 0ms infinite;}.OzVhRfQZ_24{stroke-dasharray:37 39;stroke-dashoffset:38;animation:OzVhRfQZ_draw_24 7200ms linear 0ms infinite,OzVhRfQZ_fade 7200ms linear 0ms infinite;}.OzVhRfQZ_25{stroke-dasharray:37 39;stroke-dashoffset:38;animation:OzVhRfQZ_draw_25 7200ms linear 0ms infinite,OzVhRfQZ_fade 7200ms linear 0ms infinite;}.OzVhRfQZ_26{stroke-dasharray:37 39;stroke-dashoffset:38;animation:OzVhRfQZ_draw_26 7200ms linear 0ms infinite,OzVhRfQZ_fade 7200ms linear 0ms infinite;}.OzVhRfQZ_27{stroke-dasharray:37 39;stroke-dashoffset:38;animation:OzVhRfQZ_draw_27 7200ms linear 0ms infinite,OzVhRfQZ_fade 7200ms linear 0ms infinite;}.OzVhRfQZ_28{stroke-dasharray:218 220;stroke-dashoffset:219;animation:OzVhRfQZ_draw_28 7200ms linear 0ms infinite,OzVhRfQZ_fade 7200ms linear 0ms infinite;}.OzVhRfQZ_29{stroke-dasharray:37 39;stroke-dashoffset:38;animation:OzVhRfQZ_draw_29 7200ms linear 0ms infinite,OzVhRfQZ_fade 7200ms linear 0ms infinite;}.OzVhRfQZ_30{stroke-dasharray:37 39;stroke-dashoffset:38;animation:OzVhRfQZ_draw_30 7200ms linear 0ms infinite,OzVhRfQZ_fade 7200ms linear 0ms infinite;}.OzVhRfQZ_31{stroke-dasharray:408 410;stroke-dashoffset:409;animation:OzVhRfQZ_draw_31 7200ms linear 0ms infinite,OzVhRfQZ_fade 7200ms linear 0ms infinite;}.OzVhRfQZ_32{stroke-dasharray:38 40;stroke-dashoffset:39;animation:OzVhRfQZ_draw_32 7200ms linear 0ms infinite,OzVhRfQZ_fade 7200ms linear 0ms infinite;}.OzVhRfQZ_33{stroke-dasharray:35 37;stroke-dashoffset:36;animation:OzVhRfQZ_draw_33 7200ms linear 0ms infinite,OzVhRfQZ_fade 7200ms linear 0ms infinite;}.OzVhRfQZ_34{stroke-dasharray:146 148;stroke-dashoffset:147;animation:OzVhRfQZ_draw_34 7200ms linear 0ms infinite,OzVhRfQZ_fade 7200ms linear 0ms infinite;}.OzVhRfQZ_35{stroke-dasharray:38 40;stroke-dashoffset:39;animation:OzVhRfQZ_draw_35 7200ms linear 0ms infinite,OzVhRfQZ_fade 7200ms linear 0ms infinite;}.OzVhRfQZ_36{stroke-dasharray:35 37;stroke-dashoffset:36;animation:OzVhRfQZ_draw_36 7200ms linear 0ms infinite,OzVhRfQZ_fade 7200ms linear 0ms infinite;}.OzVhRfQZ_37{stroke-dasharray:296 298;stroke-dashoffset:297;animation:OzVhRfQZ_draw_37 7200ms linear 0ms infinite,OzVhRfQZ_fade 7200ms linear 0ms infinite;}.OzVhRfQZ_38{stroke-dasharray:38 40;stroke-dashoffset:39;animation:OzVhRfQZ_draw_38 7200ms linear 0ms infinite,OzVhRfQZ_fade 7200ms linear 0ms infinite;}.OzVhRfQZ_39{stroke-dasharray:37 39;stroke-dashoffset:38;animation:OzVhRfQZ_draw_39 7200ms linear 0ms infinite,OzVhRfQZ_fade 7200ms linear 0ms infinite;}.OzVhRfQZ_40{stroke-dasharray:186 188;stroke-dashoffset:187;animation:OzVhRfQZ_draw_40 7200ms linear 0ms infinite,OzVhRfQZ_fade 7200ms linear 0ms infinite;}.OzVhRfQZ_41{stroke-dasharray:35 37;stroke-dashoffset:36;animation:OzVhRfQZ_draw_41 7200ms linear 0ms infinite,OzVhRfQZ_fade 7200ms linear 0ms infinite;}.OzVhRfQZ_42{stroke-dasharray:35 37;stroke-dashoffset:36;animation:OzVhRfQZ_draw_42 7200ms linear 0ms infinite,OzVhRfQZ_fade 7200ms linear 0ms infinite;}.OzVhRfQZ_43{stroke-dasharray:363 365;stroke-dashoffset:364;animation:OzVhRfQZ_draw_43 7200ms linear 0ms infinite,OzVhRfQZ_fade 7200ms linear 0ms infinite;}.OzVhRfQZ_44{stroke-dasharray:695 697;stroke-dashoffset:696;animation:OzVhRfQZ_draw_44 7200ms linear 0ms infinite,OzVhRfQZ_fade 7200ms linear 0ms infinite;}.OzVhRfQZ_45{stroke-dasharray:37 39;stroke-dashoffset:38;animation:OzVhRfQZ_draw_45 7200ms linear 0ms infinite,OzVhRfQZ_fade 7200ms linear 0ms infinite;}.OzVhRfQZ_46{stroke-dasharray:37 39;stroke-dashoffset:38;animation:OzVhRfQZ_draw_46 7200ms linear 0ms infinite,OzVhRfQZ_fade 7200ms linear 0ms infinite;}.OzVhRfQZ_47{stroke-dasharray:167 169;stroke-dashoffset:168;animation:OzVhRfQZ_draw_47 7200ms linear 0ms infinite,OzVhRfQZ_fade 7200ms linear 0ms infinite;}.OzVhRfQZ_48{stroke-dasharray:668 670;stroke-dashoffset:669;animation:OzVhRfQZ_draw_48 7200ms linear 0ms infinite,OzVhRfQZ_fade 7200ms linear 0ms infinite;}.OzVhRfQZ_49{stroke-dasharray:825 827;stroke-dashoffset:826;animation:OzVhRfQZ_draw_49 7200ms linear 0ms infinite,OzVhRfQZ_fade 7200ms linear 0ms infinite;}.OzVhRfQZ_50{stroke-dasharray:825 827;stroke-dashoffset:826;animation:OzVhRfQZ_draw_50 7200ms linear 0ms infinite,OzVhRfQZ_fade 7200ms linear 0ms infinite;}.OzVhRfQZ_51{stroke-dasharray:59 61;stroke-dashoffset:60;animation:OzVhRfQZ_draw_51 7200ms linear 0ms infinite,OzVhRfQZ_fade 7200ms linear 0ms infinite;}.OzVhRfQZ_52{stroke-dasharray:59 61;stroke-dashoffset:60;animation:OzVhRfQZ_draw_52 7200ms linear 0ms infinite,OzVhRfQZ_fade 7200ms linear 0ms infinite;}.OzVhRfQZ_53{stroke-dasharray:133 135;stroke-dashoffset:134;animation:OzVhRfQZ_draw_53 7200ms linear 0ms infinite,OzVhRfQZ_fade 7200ms linear 0ms infinite;}.OzVhRfQZ_54{stroke-dasharray:826 828;stroke-dashoffset:827;animation:OzVhRfQZ_draw_54 7200ms linear 0ms infinite,OzVhRfQZ_fade 7200ms linear 0ms infinite;}.OzVhRfQZ_55{stroke-dasharray:59 61;stroke-dashoffset:60;animation:OzVhRfQZ_draw_55 7200ms linear 0ms infinite,OzVhRfQZ_fade 7200ms linear 0ms infinite;}.OzVhRfQZ_56{stroke-dasharray:59 61;stroke-dashoffset:60;animation:OzVhRfQZ_draw_56 7200ms linear 0ms infinite,OzVhRfQZ_fade 7200ms linear 0ms infinite;}.OzVhRfQZ_57{stroke-dasharray:21 23;stroke-dashoffset:22;animation:OzVhRfQZ_draw_57 7200ms linear 0ms infinite,OzVhRfQZ_fade 7200ms linear 0ms infinite;}.OzVhRfQZ_58{stroke-dasharray:59 61;stroke-dashoffset:60;animation:OzVhRfQZ_draw_58 7200ms linear 0ms infinite,OzVhRfQZ_fade 7200ms linear 0ms infinite;}.OzVhRfQZ_59{stroke-dasharray:59 61;stroke-dashoffset:60;animation:OzVhRfQZ_draw_59 7200ms linear 0ms infinite,OzVhRfQZ_fade 7200ms linear 0ms infinite;}.OzVhRfQZ_60{stroke-dasharray:15 17;stroke-dashoffset:16;animation:OzVhRfQZ_draw_60 7200ms linear 0ms infinite,OzVhRfQZ_fade 7200ms linear 0ms infinite;}.OzVhRfQZ_61{stroke-dasharray:14 16;stroke-dashoffset:15;animation:OzVhRfQZ_draw_61 7200ms linear 0ms infinite,OzVhRfQZ_fade 7200ms linear 0ms infinite;}.OzVhRfQZ_62{stroke-dasharray:712 714;stroke-dashoffset:713;animation:OzVhRfQZ_draw_62 7200ms linear 0ms infinite,OzVhRfQZ_fade 7200ms linear 0ms infinite;}@keyframes OzVhRfQZ_draw{100%{stroke-dashoffset:0;}}@keyframes OzVhRfQZ_fade{0%{stroke-opacity:1;}94.44444444444444%{stroke-opacity:1;}100%{stroke-opacity:0;}}@keyframes OzVhRfQZ_draw_0{11.11111111111111%{stroke-dashoffset: 844}38.88888888888889%{ stroke-dashoffset: 0;}100%{ stroke-dashoffset: 0;}}@keyframes OzVhRfQZ_draw_1{11.335125448028673%{stroke-dashoffset: 66}39.11290322580645%{ stroke-dashoffset: 0;}100%{ stroke-dashoffset: 0;}}@keyframes OzVhRfQZ_draw_2{11.559139784946236%{stroke-dashoffset: 38}39.33691756272401%{ stroke-dashoffset: 0;}100%{ stroke-dashoffset: 0;}}@keyframes OzVhRfQZ_draw_3{11.783154121863799%{stroke-dashoffset: 38}39.560931899641574%{ stroke-dashoffset: 0;}100%{ stroke-dashoffset: 0;}}@keyframes OzVhRfQZ_draw_4{12.007168458781361%{stroke-dashoffset: 80}39.784946236559136%{ stroke-dashoffset: 0;}100%{ stroke-dashoffset: 0;}}@keyframes OzVhRfQZ_draw_5{12.231182795698924%{stroke-dashoffset: 39}40.0089605734767%{ stroke-dashoffset: 0;}100%{ stroke-dashoffset: 0;}}@keyframes OzVhRfQZ_draw_6{12.455197132616487%{stroke-dashoffset: 38}40.23297491039427%{ stroke-dashoffset: 0;}100%{ stroke-dashoffset: 0;}}@keyframes OzVhRfQZ_draw_7{12.67921146953405%{stroke-dashoffset: 276}40.45698924731183%{ stroke-dashoffset: 0;}100%{ stroke-dashoffset: 0;}}@keyframes OzVhRfQZ_draw_8{12.903225806451612%{stroke-dashoffset: 39}40.681003584229394%{ stroke-dashoffset: 0;}100%{ stroke-dashoffset: 0;}}@keyframes OzVhRfQZ_draw_9{13.127240143369177%{stroke-dashoffset: 39}40.90501792114695%{ stroke-dashoffset: 0;}100%{ stroke-dashoffset: 0;}}@keyframes OzVhRfQZ_draw_10{13.351254480286737%{stroke-dashoffset: 108}41.12903225806451%{ stroke-dashoffset: 0;}100%{ stroke-dashoffset: 0;}}@keyframes OzVhRfQZ_draw_11{13.5752688172043%{stroke-dashoffset: 38}41.35304659498208%{ stroke-dashoffset: 0;}100%{ stroke-dashoffset: 0;}}@keyframes OzVhRfQZ_draw_12{13.799283154121863%{stroke-dashoffset: 38}41.57706093189964%{ stroke-dashoffset: 0;}100%{ stroke-dashoffset: 0;}}@keyframes OzVhRfQZ_draw_13{14.023297491039427%{stroke-dashoffset: 88}41.80107526881721%{ stroke-dashoffset: 0;}100%{ stroke-dashoffset: 0;}}@keyframes OzVhRfQZ_draw_14{14.247311827956988%{stroke-dashoffset: 36}42.02508960573476%{ stroke-dashoffset: 0;}100%{ stroke-dashoffset: 0;}}@keyframes OzVhRfQZ_draw_15{14.471326164874554%{stroke-dashoffset: 39}42.24910394265233%{ stroke-dashoffset: 0;}100%{ stroke-dashoffset: 0;}}@keyframes OzVhRfQZ_draw_16{14.695340501792115%{stroke-dashoffset: 38}42.473118279569896%{ stroke-dashoffset: 0;}100%{ stroke-dashoffset: 0;}}@keyframes OzVhRfQZ_draw_17{14.919354838709678%{stroke-dashoffset: 38}42.69713261648745%{ stroke-dashoffset: 0;}100%{ stroke-dashoffset: 0;}}@keyframes OzVhRfQZ_draw_18{15.143369175627239%{stroke-dashoffset: 404}42.921146953405014%{ stroke-dashoffset: 0;}100%{ stroke-dashoffset: 0;}}@keyframes OzVhRfQZ_draw_19{15.367383512544802%{stroke-dashoffset: 39}43.145161290322584%{ stroke-dashoffset: 0;}100%{ stroke-dashoffset: 0;}}@keyframes OzVhRfQZ_draw_20{15.591397849462366%{stroke-dashoffset: 309}43.36917562724014%{ stroke-dashoffset: 0;}100%{ stroke-dashoffset: 0;}}@keyframes OzVhRfQZ_draw_21{15.815412186379929%{stroke-dashoffset: 36}43.59318996415771%{ stroke-dashoffset: 0;}100%{ stroke-dashoffset: 0;}}@keyframes OzVhRfQZ_draw_22{16.03942652329749%{stroke-dashoffset: 560}43.81720430107527%{ stroke-dashoffset: 0;}100%{ stroke-dashoffset: 0;}}@keyframes OzVhRfQZ_draw_23{16.263440860215052%{stroke-dashoffset: 36}44.04121863799283%{ stroke-dashoffset: 0;}100%{ stroke-dashoffset: 0;}}@keyframes OzVhRfQZ_draw_24{16.48745519713262%{stroke-dashoffset: 38}44.2652329749104%{ stroke-dashoffset: 0;}100%{ stroke-dashoffset: 0;}}@keyframes OzVhRfQZ_draw_25{16.71146953405018%{stroke-dashoffset: 38}44.48924731182796%{ stroke-dashoffset: 0;}100%{ stroke-dashoffset: 0;}}@keyframes OzVhRfQZ_draw_26{16.935483870967744%{stroke-dashoffset: 38}44.71326164874552%{ stroke-dashoffset: 0;}100%{ stroke-dashoffset: 0;}}@keyframes OzVhRfQZ_draw_27{17.159498207885303%{stroke-dashoffset: 38}44.937275985663085%{ stroke-dashoffset: 0;}100%{ stroke-dashoffset: 0;}}@keyframes OzVhRfQZ_draw_28{17.383512544802866%{stroke-dashoffset: 219}45.16129032258064%{ stroke-dashoffset: 0;}100%{ stroke-dashoffset: 0;}}@keyframes OzVhRfQZ_draw_29{17.607526881720432%{stroke-dashoffset: 38}45.38530465949821%{ stroke-dashoffset: 0;}100%{ stroke-dashoffset: 0;}}@keyframes OzVhRfQZ_draw_30{17.831541218637994%{stroke-dashoffset: 38}45.60931899641577%{ stroke-dashoffset: 0;}100%{ stroke-dashoffset: 0;}}@keyframes OzVhRfQZ_draw_31{18.055555555555554%{stroke-dashoffset: 409}45.83333333333333%{ stroke-dashoffset: 0;}100%{ stroke-dashoffset: 0;}}@keyframes OzVhRfQZ_draw_32{18.279569892473116%{stroke-dashoffset: 39}46.05734767025089%{ stroke-dashoffset: 0;}100%{ stroke-dashoffset: 0;}}@keyframes OzVhRfQZ_draw_33{18.503584229390682%{stroke-dashoffset: 36}46.281362007168454%{ stroke-dashoffset: 0;}100%{ stroke-dashoffset: 0;}}@keyframes OzVhRfQZ_draw_34{18.727598566308245%{stroke-dashoffset: 147}46.505376344086024%{ stroke-dashoffset: 0;}100%{ stroke-dashoffset: 0;}}@keyframes OzVhRfQZ_draw_35{18.951612903225808%{stroke-dashoffset: 39}46.729390681003586%{ stroke-dashoffset: 0;}100%{ stroke-dashoffset: 0;}}@keyframes OzVhRfQZ_draw_36{19.175627240143367%{stroke-dashoffset: 36}46.95340501792115%{ stroke-dashoffset: 0;}100%{ stroke-dashoffset: 0;}}@keyframes OzVhRfQZ_draw_37{19.39964157706093%{stroke-dashoffset: 297}47.17741935483871%{ stroke-dashoffset: 0;}100%{ stroke-dashoffset: 0;}}@keyframes OzVhRfQZ_draw_38{19.623655913978496%{stroke-dashoffset: 39}47.401433691756274%{ stroke-dashoffset: 0;}100%{ stroke-dashoffset: 0;}}@keyframes OzVhRfQZ_draw_39{19.84767025089606%{stroke-dashoffset: 38}47.62544802867383%{ stroke-dashoffset: 0;}100%{ stroke-dashoffset: 0;}}@keyframes OzVhRfQZ_draw_40{20.071684587813618%{stroke-dashoffset: 187}47.84946236559139%{ stroke-dashoffset: 0;}100%{ stroke-dashoffset: 0;}}@keyframes OzVhRfQZ_draw_41{20.29569892473118%{stroke-dashoffset: 36}48.073476702508955%{ stroke-dashoffset: 0;}100%{ stroke-dashoffset: 0;}}@keyframes OzVhRfQZ_draw_42{20.519713261648747%{stroke-dashoffset: 36}48.297491039426525%{ stroke-dashoffset: 0;}100%{ stroke-dashoffset: 0;}}@keyframes OzVhRfQZ_draw_43{20.74372759856631%{stroke-dashoffset: 364}48.52150537634409%{ stroke-dashoffset: 0;}100%{ stroke-dashoffset: 0;}}@keyframes OzVhRfQZ_draw_44{20.96774193548387%{stroke-dashoffset: 696}48.74551971326165%{ stroke-dashoffset: 0;}100%{ stroke-dashoffset: 0;}}@keyframes OzVhRfQZ_draw_45{21.19175627240143%{stroke-dashoffset: 38}48.96953405017921%{ stroke-dashoffset: 0;}100%{ stroke-dashoffset: 0;}}@keyframes OzVhRfQZ_draw_46{21.415770609318997%{stroke-dashoffset: 38}49.193548387096776%{ stroke-dashoffset: 0;}100%{ stroke-dashoffset: 0;}}@keyframes OzVhRfQZ_draw_47{21.63978494623656%{stroke-dashoffset: 168}49.41756272401434%{ stroke-dashoffset: 0;}100%{ stroke-dashoffset: 0;}}@keyframes OzVhRfQZ_draw_48{21.863799283154123%{stroke-dashoffset: 669}49.641577060931894%{ stroke-dashoffset: 0;}100%{ stroke-dashoffset: 0;}}@keyframes OzVhRfQZ_draw_49{22.087813620071685%{stroke-dashoffset: 826}49.865591397849464%{ stroke-dashoffset: 0;}100%{ stroke-dashoffset: 0;}}@keyframes OzVhRfQZ_draw_50{22.311827956989248%{stroke-dashoffset: 826}50.08960573476703%{ stroke-dashoffset: 0;}100%{ stroke-dashoffset: 0;}}@keyframes OzVhRfQZ_draw_51{22.53584229390681%{stroke-dashoffset: 60}50.31362007168458%{ stroke-dashoffset: 0;}100%{ stroke-dashoffset: 0;}}@keyframes OzVhRfQZ_draw_52{22.759856630824373%{stroke-dashoffset: 60}50.53763440860215%{ stroke-dashoffset: 0;}100%{ stroke-dashoffset: 0;}}@keyframes OzVhRfQZ_draw_53{22.983870967741936%{stroke-dashoffset: 134}50.761648745519715%{ stroke-dashoffset: 0;}100%{ stroke-dashoffset: 0;}}@keyframes OzVhRfQZ_draw_54{23.2078853046595%{stroke-dashoffset: 827}50.98566308243727%{ stroke-dashoffset: 0;}100%{ stroke-dashoffset: 0;}}@keyframes OzVhRfQZ_draw_55{23.431899641577058%{stroke-dashoffset: 60}51.20967741935484%{ stroke-dashoffset: 0;}100%{ stroke-dashoffset: 0;}}@keyframes OzVhRfQZ_draw_56{23.655913978494624%{stroke-dashoffset: 60}51.4336917562724%{ stroke-dashoffset: 0;}100%{ stroke-dashoffset: 0;}}@keyframes OzVhRfQZ_draw_57{23.879928315412187%{stroke-dashoffset: 22}51.65770609318997%{ stroke-dashoffset: 0;}100%{ stroke-dashoffset: 0;}}@keyframes OzVhRfQZ_draw_58{24.10394265232975%{stroke-dashoffset: 60}51.88172043010753%{ stroke-dashoffset: 0;}100%{ stroke-dashoffset: 0;}}@keyframes OzVhRfQZ_draw_59{24.32795698924731%{stroke-dashoffset: 60}52.10573476702509%{ stroke-dashoffset: 0;}100%{ stroke-dashoffset: 0;}}@keyframes OzVhRfQZ_draw_60{24.551971326164875%{stroke-dashoffset: 16}52.32974910394266%{ stroke-dashoffset: 0;}100%{ stroke-dashoffset: 0;}}@keyframes OzVhRfQZ_draw_61{24.77598566308244%{stroke-dashoffset: 15}52.553763440860216%{ stroke-dashoffset: 0;}100%{ stroke-dashoffset: 0;}}@keyframes OzVhRfQZ_draw_62{25%{stroke-dashoffset: 713}52.77777777777778%{ stroke-dashoffset: 0;}100%{ stroke-dashoffset: 0;}}</style></svg>
