<svg width="514" height="513" viewBox="0 0 514 513" fill="none" xmlns="http://www.w3.org/2000/svg">
<path d="M257.5 372C318.527 372 368 322.527 368 261.5C368 200.473 318.527 151 257.5 151C196.473 151 147 200.473 147 261.5C147 322.527 196.473 372 257.5 372Z" stroke="#4377F8" stroke-linecap="round" stroke-linejoin="round"/>
<path d="M437 277L481 281" stroke="#4377F8" stroke-linecap="round" stroke-linejoin="round"/>
<path d="M442 277C442 275.813 441.677 274.653 441.073 273.667C440.469 272.68 439.61 271.911 438.605 271.457C437.6 271.003 436.494 270.884 435.427 271.115C434.36 271.347 433.38 271.918 432.611 272.757C431.842 273.596 431.318 274.666 431.106 275.829C430.893 276.993 431.002 278.2 431.419 279.296C431.835 280.392 432.54 281.33 433.444 281.989C434.349 282.648 435.412 283 436.5 283C437.957 282.993 439.352 282.359 440.382 281.235C441.412 280.111 441.994 278.589 442 277Z" fill="#4377F8"/>
<path d="M487 280.5C487 279.412 486.648 278.349 485.989 277.444C485.329 276.54 484.392 275.835 483.296 275.419C482.2 275.002 480.993 274.893 479.829 275.106C478.666 275.318 477.596 275.842 476.757 276.611C475.918 277.38 475.347 278.36 475.115 279.427C474.884 280.494 475.003 281.6 475.457 282.605C475.911 283.61 476.68 284.469 477.667 285.073C478.653 285.677 479.813 286 481 286C482.591 286 484.117 285.421 485.243 284.389C486.368 283.358 487 281.959 487 280.5Z" fill="#4377F8"/>
<path d="M191 508L216.817 413C230.252 416.525 244.097 418.302 258 418.286V474.628" stroke="#4377F8" stroke-linecap="round" stroke-linejoin="round"/>
<path d="M263 473.975C262.995 472.789 262.669 471.632 262.062 470.648C261.455 469.665 260.594 468.9 259.589 468.45C258.583 467.999 257.478 467.884 256.413 468.118C255.347 468.353 254.37 468.926 253.603 469.766C252.836 470.606 252.314 471.676 252.104 472.839C251.894 474.002 252.004 475.207 252.421 476.302C252.838 477.397 253.543 478.332 254.447 478.991C255.351 479.649 256.413 480 257.5 480C258.224 480 258.941 479.844 259.61 479.541C260.279 479.238 260.886 478.794 261.397 478.234C261.908 477.674 262.313 477.009 262.588 476.279C262.863 475.548 263.003 474.765 263 473.975Z" fill="#4377F8"/>
<path d="M197 507.523C197.005 506.434 196.686 505.369 196.084 504.461C195.483 503.554 194.625 502.845 193.621 502.425C192.616 502.005 191.51 501.893 190.441 502.103C189.373 502.312 188.391 502.835 187.619 503.603C186.848 504.371 186.321 505.351 186.107 506.419C185.893 507.486 186.001 508.593 186.416 509.599C186.832 510.606 187.537 511.466 188.442 512.071C189.347 512.677 190.411 513 191.5 513C192.953 512.994 194.345 512.416 195.374 511.391C196.404 510.365 196.988 508.976 197 507.523Z" fill="#4377F8"/>
<path d="M287 427C318.698 421.459 348.116 406.756 371.679 384.678C376.964 379.769 381.939 374.533 386.576 369L453 425.209" stroke="#4377F8" stroke-linecap="round" stroke-linejoin="round"/>
<path d="M286.5 433C289.538 433 292 430.314 292 427C292 423.686 289.538 421 286.5 421C283.462 421 281 423.686 281 427C281 430.314 283.462 433 286.5 433Z" fill="#4377F8"/>
<path d="M459 425.025C459.005 423.837 458.657 422.675 458.001 421.685C457.345 420.695 456.41 419.922 455.314 419.464C454.218 419.006 453.01 418.884 451.845 419.112C450.679 419.341 449.608 419.91 448.766 420.748C447.925 421.587 447.351 422.656 447.117 423.82C446.884 424.985 447.001 426.192 447.454 427.29C447.908 428.388 448.677 429.327 449.664 429.987C450.651 430.647 451.812 431 453 431C453.787 431.003 454.566 430.851 455.294 430.552C456.022 430.254 456.684 429.814 457.241 429.259C457.799 428.704 458.241 428.044 458.543 427.317C458.845 426.591 459 425.812 459 425.025Z" fill="#4377F8"/>
<path d="M356 432L385 482" stroke="#4377F8" stroke-linecap="round" stroke-linejoin="round"/>
<path d="M390.63 484.074C391.042 482.956 391.112 481.741 390.83 480.583C390.549 479.425 389.929 478.377 389.049 477.573C388.17 476.768 387.071 476.244 385.893 476.067C384.715 475.889 383.51 476.067 382.433 476.577C381.356 477.087 380.455 477.906 379.845 478.929C379.235 479.953 378.944 481.135 379.009 482.325C379.073 483.515 379.491 484.659 380.208 485.611C380.925 486.562 381.909 487.279 383.035 487.669C384.52 488.184 386.147 488.095 387.567 487.423C388.987 486.751 390.087 485.549 390.63 484.074Z" fill="#4377F8"/>
<path d="M361.63 434.074C362.042 432.956 362.112 431.741 361.83 430.583C361.549 429.425 360.929 428.377 360.049 427.573C359.17 426.768 358.071 426.244 356.893 426.067C355.715 425.889 354.51 426.067 353.433 426.577C352.356 427.087 351.455 427.906 350.845 428.929C350.235 429.953 349.944 431.135 350.009 432.325C350.073 433.515 350.491 434.659 351.208 435.611C351.925 436.562 352.909 437.279 354.035 437.669C355.52 438.184 357.147 438.095 358.567 437.423C359.987 436.751 361.087 435.549 361.63 434.074Z" fill="#4377F8"/>
<path d="M466 205.317L397.953 224C394.945 212.505 390.596 201.425 385 191" stroke="#4377F8" stroke-linecap="round" stroke-linejoin="round"/>
<path d="M391 191.025C391.005 189.837 390.657 188.675 390.001 187.685C389.345 186.695 388.41 185.922 387.314 185.464C386.218 185.006 385.01 184.884 383.845 185.112C382.679 185.341 381.608 185.91 380.766 186.748C379.925 187.587 379.351 188.656 379.117 189.82C378.884 190.985 379.001 192.192 379.454 193.29C379.908 194.388 380.677 195.327 381.664 195.987C382.651 196.647 383.812 197 385 197C385.787 197.003 386.566 196.851 387.294 196.552C388.022 196.254 388.684 195.814 389.241 195.259C389.799 194.704 390.241 194.044 390.543 193.317C390.845 192.591 391 191.812 391 191.025Z" fill="#4377F8"/>
<path d="M466 211C469.314 211 472 208.314 472 205C472 201.686 469.314 199 466 199C462.686 199 460 201.686 460 205C460 208.314 462.686 211 466 211Z" fill="#4377F8"/>
<path d="M438 81L410.222 108.413L404.588 137.422L377.35 160C368.47 149.605 358.269 140.383 347 132.563L347.196 132.321L376.223 91.3947" stroke="#4377F8" stroke-linecap="round" stroke-linejoin="round"/>
<path d="M376.5 97C379.538 97 382 94.3137 382 91C382 87.6863 379.538 85 376.5 85C373.462 85 371 87.6863 371 91C371 94.3137 373.462 97 376.5 97Z" fill="#4377F8"/>
<path d="M444 81C444 79.8133 443.648 78.6533 442.989 77.6666C442.329 76.6799 441.392 75.9109 440.296 75.4567C439.2 75.0026 437.993 74.8838 436.829 75.1153C435.666 75.3468 434.596 75.9182 433.757 76.7573C432.918 77.5965 432.347 78.6655 432.115 79.8294C431.884 80.9933 432.003 82.1997 432.457 83.2961C432.911 84.3924 433.68 85.3295 434.667 85.9888C435.653 86.6481 436.813 86.9999 438 86.9999C438.789 87.0033 439.571 86.8504 440.3 86.55C441.029 86.2497 441.692 85.8079 442.25 85.2501C442.808 84.6922 443.25 84.0295 443.55 83.3C443.85 82.5706 444.003 81.7889 444 81Z" fill="#4377F8"/>
<path d="M509 216.89L389.238 238C385.467 216.849 376.663 196.914 363.57 179.873C350.476 162.832 333.475 149.185 314 140.081L347.643 68" stroke="#4377F8" stroke-linecap="round" stroke-linejoin="round"/>
<path d="M353 67.9747C352.995 66.7891 352.669 65.6315 352.062 64.6482C351.455 63.6648 350.594 62.8997 349.589 62.4495C348.583 61.9992 347.478 61.884 346.413 62.1184C345.347 62.3528 344.37 62.9262 343.603 63.7663C342.836 64.6064 342.314 65.6756 342.104 66.8388C341.894 68.002 342.004 69.207 342.421 70.3019C342.838 71.3968 343.543 72.3324 344.447 72.9906C345.351 73.6487 346.413 74 347.5 74C348.224 74 348.941 73.844 349.61 73.5409C350.279 73.2378 350.886 72.7935 351.397 72.2337C351.908 71.6739 352.313 71.0094 352.588 70.2786C352.863 69.5477 353.003 68.7648 353 67.9747Z" fill="#4377F8"/>
<path d="M257.321 6V139.006C233.128 139.006 209.479 146.161 189.363 159.566C169.247 172.971 153.569 192.025 144.311 214.317C135.053 236.609 132.631 261.138 137.35 284.803C142.07 308.468 153.72 330.206 170.827 347.268C187.934 364.329 209.729 375.948 233.457 380.656C257.185 385.363 281.78 382.947 304.131 373.713C326.482 364.48 345.586 348.843 359.027 328.781C372.467 308.718 379.641 285.132 379.641 261.003H513" stroke="#4377F8" stroke-linecap="round" stroke-linejoin="round"/>
<path d="M204.333 62L208 75.7765C191.892 80.12 176.425 86.5838 162 95" stroke="#4377F8" stroke-linecap="round" stroke-linejoin="round"/>
<path d="M210 62.5C210 61.4122 209.648 60.3488 208.989 59.4444C208.329 58.5399 207.392 57.835 206.296 57.4187C205.2 57.0024 203.993 56.8935 202.829 57.1057C201.666 57.3179 200.596 57.8417 199.757 58.6109C198.918 59.3801 198.347 60.3601 198.115 61.427C197.884 62.4939 198.003 63.5998 198.457 64.6048C198.911 65.6098 199.68 66.4687 200.667 67.0731C201.653 67.6774 202.813 68 204 68C205.591 68 207.117 67.4205 208.243 66.3891C209.368 65.3576 210 63.9587 210 62.5Z" fill="#4377F8"/>
<path d="M162 101C165.314 101 168 98.5376 168 95.5C168 92.4625 165.314 90 162 90C158.686 90 156 92.4625 156 95.5C156 98.5376 158.686 101 162 101Z" fill="#4377F8"/>
<path d="M26 153L97 186" stroke="#4377F8" stroke-linecap="round" stroke-linejoin="round"/>
<path d="M31.9999 153.025C32.0049 151.837 31.6573 150.675 31.001 149.685C30.3448 148.695 29.4095 147.922 28.3136 147.464C27.2177 147.006 26.0105 146.884 24.8449 147.112C23.6794 147.341 22.6079 147.91 21.7663 148.748C20.9246 149.587 20.3507 150.656 20.1171 151.82C19.8836 152.985 20.0009 154.192 20.4543 155.29C20.9077 156.388 21.6767 157.327 22.664 157.987C23.6512 158.647 24.8122 159 25.9999 159C27.5849 158.993 29.1034 158.363 30.2264 157.244C31.3495 156.126 31.9867 154.61 31.9999 153.025Z" fill="#4377F8"/>
<path d="M97 192C100.314 192 103 189.538 103 186.5C103 183.462 100.314 181 97 181C93.6863 181 91 183.462 91 186.5C91 189.538 93.6863 192 97 192Z" fill="#4377F8"/>
<path d="M62 425L146 354.437C128.271 333.308 116.941 307.545 113.347 280.184C109.752 252.822 114.042 225.002 125.711 200" stroke="#4377F8" stroke-linecap="round" stroke-linejoin="round"/>
<path d="M67.9999 425C67.9999 423.812 67.6474 422.651 66.987 421.664C66.3266 420.677 65.3881 419.908 64.2902 419.454C63.1924 419.001 61.9847 418.884 60.8202 419.117C59.6556 419.351 58.5866 419.925 57.7485 420.766C56.9104 421.608 56.3409 422.679 56.1122 423.845C55.8836 425.01 56.006 426.218 56.464 427.314C56.922 428.409 57.6949 429.345 58.6849 430.001C59.6749 430.657 60.8375 431.005 62.0252 431C62.8119 431 63.5909 430.845 64.3175 430.543C65.044 430.241 65.7038 429.799 66.2589 429.241C66.8141 428.684 67.2536 428.022 67.5524 427.294C67.8512 426.566 68.0033 425.787 67.9999 425Z" fill="#4377F8"/>
<path d="M126 206C129.314 206 132 203.314 132 200C132 196.686 129.314 194 126 194C122.686 194 120 196.686 120 200C120 203.314 122.686 206 126 206Z" fill="#4377F8"/>
<path d="M6 305L80 292.028C78.2091 281.781 77.3048 271.4 77.2971 261" stroke="#4377F8" stroke-linecap="round" stroke-linejoin="round"/>
<path d="M83 261.025C83.0045 259.837 82.6858 258.675 82.0843 257.685C81.4827 256.695 80.6254 255.922 79.6208 255.464C78.6162 255.006 77.5096 254.884 76.4412 255.112C75.3727 255.341 74.3906 255.91 73.6191 256.748C72.8476 257.587 72.3215 258.656 72.1074 259.82C71.8933 260.985 72.0008 262.192 72.4164 263.29C72.832 264.388 73.537 265.327 74.4419 265.987C75.3469 266.647 76.4112 267 77.4999 267C78.9546 267 80.3501 266.371 81.3809 265.252C82.4117 264.132 82.9938 262.612 83 261.025Z" fill="#4377F8"/>
<path d="M5.99998 311C9.31369 311 12 308.538 12 305.5C12 302.462 9.31369 300 5.99998 300C2.68628 300 0 302.462 0 305.5C0 308.538 2.68628 311 5.99998 311Z" fill="#4377F8"/>
<path d="M37 389L112 345" stroke="#4377F8" stroke-linecap="round" stroke-linejoin="round"/>
<path d="M36.5 394C39.5376 394 42 391.538 42 388.5C42 385.462 39.5376 383 36.5 383C33.4624 383 31 385.462 31 388.5C31 391.538 33.4624 394 36.5 394Z" fill="#4377F8"/>
<path d="M118 345C118 343.812 117.647 342.651 116.987 341.664C116.327 340.677 115.388 339.908 114.29 339.454C113.192 339.001 111.985 338.884 110.82 339.117C109.656 339.351 108.587 339.925 107.748 340.766C106.91 341.608 106.341 342.679 106.112 343.845C105.884 345.01 106.006 346.218 106.464 347.314C106.922 348.41 107.695 349.345 108.685 350.001C109.675 350.657 110.837 351.005 112.025 351C112.812 351 113.591 350.845 114.317 350.543C115.044 350.241 115.704 349.799 116.259 349.241C116.814 348.684 117.254 348.022 117.552 347.294C117.851 346.566 118.003 345.787 118 345Z" fill="#4377F8"/>
<path d="M451.5 250C454.538 250 457 247.314 457 244C457 240.686 454.538 238 451.5 238C448.462 238 446 240.686 446 244C446 247.314 448.462 250 451.5 250Z" fill="#4377F8"/>
<path d="M351 21.5C351 20.4122 350.648 19.3488 349.989 18.4444C349.33 17.5399 348.392 16.835 347.296 16.4187C346.2 16.0024 344.993 15.8935 343.829 16.1057C342.666 16.3179 341.596 16.8417 340.757 17.6109C339.918 18.3801 339.347 19.3601 339.115 20.427C338.884 21.4939 339.003 22.5998 339.457 23.6048C339.911 24.6098 340.68 25.4687 341.667 26.0731C342.653 26.6774 343.813 27 345 27C345.788 27 346.568 26.8577 347.296 26.5813C348.024 26.3049 348.686 25.8998 349.243 25.3891C349.8 24.8783 350.242 24.272 350.543 23.6048C350.845 22.9375 351 22.2223 351 21.5Z" fill="#4377F8"/>
<path d="M344.866 21L321.249 85.6597L271.276 101.685L268 139.117C296.665 141.655 323.521 154.153 343.87 174.423C364.22 194.694 376.766 221.446 379.314 250L452 243.668" stroke="#4377F8" stroke-linecap="round" stroke-linejoin="round"/>
<path d="M391 39.9747C390.995 38.7891 390.639 37.6316 389.976 36.6482C389.314 35.6648 388.375 34.8997 387.279 34.4495C386.182 33.9992 384.976 33.884 383.814 34.1184C382.652 34.3528 381.585 34.9262 380.748 35.7663C379.912 36.6064 379.343 37.6755 379.113 38.8387C378.884 40.0019 379.004 41.207 379.459 42.3019C379.914 43.3968 380.683 44.3324 381.669 44.9906C382.655 45.6487 383.814 46 385 46C385.79 46 386.572 45.844 387.302 45.5409C388.032 45.2378 388.694 44.7936 389.252 44.2337C389.809 43.6739 390.25 43.0095 390.55 42.2786C390.85 41.5477 391.003 40.7648 391 39.9747Z" fill="#4377F8"/>
<path d="M489 153.4L444.022 174.36L415.364 150.737L376.42 178C364.222 160.618 348.381 146.103 330 135.469L385.117 40" stroke="#4377F8" stroke-linecap="round" stroke-linejoin="round"/>
<path d="M93.5 462C96.5376 462 99 459.538 99 456.5C99 453.462 96.5376 451 93.5 451C90.4624 451 88 453.462 88 456.5C88 459.538 90.4624 462 93.5 462Z" fill="#4377F8"/>
<path d="M497 348.346L432.702 325.043L421.974 275.767L390.276 273C388.233 296.255 380.077 318.566 366.63 337.69C353.183 356.814 334.917 372.078 313.668 381.95C292.418 391.821 268.934 395.951 245.573 393.926C222.213 391.9 199.799 383.79 180.583 370.411L155.493 406.069L133.939 407.695L93 456" stroke="#4377F8" stroke-linecap="round" stroke-linejoin="round"/>
<path d="M400.5 292C403.538 292 406 289.538 406 286.5C406 283.462 403.538 281 400.5 281C397.462 281 395 283.462 395 286.5C395 289.538 397.462 292 400.5 292Z" fill="#4377F8"/>
<path d="M155 492C155 490.813 154.677 489.653 154.073 488.667C153.469 487.68 152.61 486.911 151.605 486.457C150.6 486.003 149.494 485.884 148.427 486.115C147.36 486.347 146.38 486.918 145.611 487.757C144.842 488.596 144.318 489.666 144.106 490.829C143.893 491.993 144.002 493.2 144.419 494.296C144.835 495.392 145.54 496.329 146.444 496.989C147.349 497.648 148.412 498 149.5 498C150.959 498 152.358 497.368 153.389 496.243C154.421 495.117 155 493.591 155 492Z" fill="#4377F8"/>
<path d="M237.5 39C240.538 39 243 36.3137 243 33C243 29.6863 240.538 27 237.5 27C234.462 27 232 29.6863 232 33C232 36.3137 234.462 39 237.5 39Z" fill="#4377F8"/>
<path d="M255.5 12C258.538 12 261 9.31369 261 5.99998C261 2.68628 258.538 0 255.5 0C252.462 0 250 2.68628 250 5.99998C250 9.31369 252.462 12 255.5 12Z" fill="#4377F8"/>
<path d="M139 156.5C139 155.411 138.647 154.347 137.987 153.442C137.327 152.537 136.388 151.832 135.29 151.416C134.192 151.001 132.985 150.893 131.82 151.107C130.656 151.321 129.587 151.848 128.748 152.619C127.91 153.391 127.341 154.373 127.112 155.441C126.884 156.51 127.006 157.616 127.464 158.621C127.922 159.625 128.695 160.483 129.685 161.084C130.675 161.686 131.837 162.005 133.025 162C133.812 162 134.591 161.858 135.317 161.581C136.044 161.304 136.704 160.899 137.259 160.388C137.814 159.877 138.254 159.27 138.552 158.603C138.851 157.936 139.003 157.221 139 156.5Z" fill="#4377F8"/>
<path d="M237.895 33L241 68.0324L202.905 110.377L212.099 135.425C190.008 143.454 170.423 157.1 155.299 175L133 156.391" stroke="#4377F8" stroke-linecap="round" stroke-linejoin="round"/>
<path d="M108 416C108 414.813 107.677 413.653 107.073 412.667C106.469 411.68 105.61 410.911 104.605 410.457C103.6 410.003 102.494 409.884 101.427 410.115C100.36 410.347 99.3801 410.918 98.6109 411.757C97.8417 412.596 97.3179 413.666 97.1057 414.829C96.8935 415.993 97.0024 417.2 97.4187 418.296C97.835 419.392 98.5399 420.33 99.4443 420.989C100.349 421.648 101.412 422 102.5 422C103.959 422 105.358 421.368 106.389 420.243C107.421 419.117 108 417.591 108 416Z" fill="#4377F8"/>
<path d="M77 86C80.3137 86 83 83.5376 83 80.5C83 77.4625 80.3137 75 77 75C73.6863 75 71 77.4625 71 80.5C71 83.5376 73.6863 86 77 86Z" fill="#4377F8"/>
<path d="M77 81L117.099 121.044L113.101 177.948L141.719 194.418C126.998 219.842 121.104 249.406 124.952 278.517C128.8 307.628 142.176 334.655 163 355.398L102.132 416" stroke="#4377F8" stroke-linecap="round" stroke-linejoin="round"/>
<path d="M136 40C136 38.8133 135.648 37.6533 134.989 36.6666C134.33 35.6799 133.392 34.9109 132.296 34.4567C131.2 34.0026 129.993 33.8838 128.829 34.1153C127.666 34.3468 126.596 34.9182 125.757 35.7574C124.918 36.5965 124.347 37.6656 124.115 38.8295C123.884 39.9933 124.003 41.1998 124.457 42.2961C124.911 43.3925 125.68 44.3296 126.667 44.9888C127.653 45.6481 128.813 46 130 46C131.591 46 133.117 45.3679 134.243 44.2426C135.368 43.1174 136 41.5913 136 40Z" fill="#4377F8"/>
<path d="M154.5 164C157.538 164 160 161.538 160 158.5C160 155.462 157.538 153 154.5 153C151.462 153 149 155.462 149 158.5C149 161.538 151.462 164 154.5 164Z" fill="#4377F8"/>
<path d="M154.528 159C160.529 152.907 167.045 147.356 174 142.409L139.99 93.3701L148.553 72.4968L130 40" stroke="#4377F8" stroke-linecap="round" stroke-linejoin="round"/>
<path d="M12 217C12 215.813 11.6481 214.653 10.9888 213.667C10.3295 212.68 9.39247 211.911 8.29611 211.457C7.19975 211.003 5.99334 210.884 4.82945 211.115C3.66557 211.347 2.59647 211.918 1.75736 212.757C0.91824 213.596 0.346802 214.666 0.11529 215.829C-0.116221 216.993 0.0026022 218.2 0.456728 219.296C0.910855 220.392 1.67988 221.33 2.66658 221.989C3.65327 222.648 4.81329 223 5.99998 223C7.59128 223 9.11743 222.368 10.2426 221.243C11.3679 220.117 12 218.591 12 217Z" fill="#4377F8"/>
<path d="M85.5 387C88.5376 387 91 384.538 91 381.5C91 378.462 88.5376 376 85.5 376C82.4624 376 80 378.462 80 381.5C80 384.538 82.4624 387 85.5 387Z" fill="#4377F8"/>
<path d="M6 216.643L54.473 225.223L78.2339 213L105.971 220.456C100.025 242.633 99.0062 265.847 102.985 288.462C106.964 311.077 115.844 332.542 129 351.344L85.3084 382" stroke="#4377F8" stroke-linecap="round" stroke-linejoin="round"/>
<path d="M47 365C50.3137 365 53 362.314 53 359C53 355.686 50.3137 353 47 353C43.6863 353 41 355.686 41 359C41 362.314 43.6863 365 47 365Z" fill="#4377F8"/>
<path d="M44 248C47.3137 248 50 245.538 50 242.5C50 239.462 47.3137 237 44 237C40.6863 237 38 239.462 38 242.5C38 245.538 40.6863 248 44 248Z" fill="#4377F8"/>
<path d="M47.5322 359L68.1693 349.236L79.9032 308.421L95 304.467C91.2213 290.19 89.31 275.476 89.3146 260.699C89.3146 255.816 89.5323 250.934 89.9678 246.052L44 242" stroke="#4377F8" stroke-linecap="round" stroke-linejoin="round"/>
<path d="M478.5 394C481.538 394 484 391.538 484 388.5C484 385.462 481.538 383 478.5 383C475.462 383 473 385.462 473 388.5C473 391.538 475.462 394 478.5 394Z" fill="#4377F8"/>
<path d="M323.5 513C326.538 513 329 510.538 329 507.5C329 504.462 326.538 502 323.5 502C320.462 502 318 504.462 318 507.5C318 510.538 320.462 513 323.5 513Z" fill="#4377F8"/>
<path d="M323.303 508L313.573 471.64L274.868 461.865L271 417.416C305.492 414.419 338.013 399.986 363.443 376.389C371.706 368.733 379.143 360.223 385.63 351L417.62 373.481L450.291 372.675L478 388.753" stroke="#4377F8" stroke-linecap="round" stroke-linejoin="round"/>
<path d="M257.5 372C318.527 372 368 322.527 368 261.5C368 200.473 318.527 151 257.5 151C196.473 151 147 200.473 147 261.5C147 322.527 196.473 372 257.5 372Z" stroke="#4377F8" stroke-linecap="round" stroke-linejoin="round"/>
<path d="M332.5 473C335.538 473 338 470.314 338 467C338 463.686 335.538 461 332.5 461C329.462 461 327 463.686 327 467C327 470.314 329.462 473 332.5 473Z" fill="#4377F8"/>
<path d="M430 428C430 426.812 429.677 425.651 429.071 424.664C428.466 423.677 427.606 422.908 426.599 422.454C425.593 422.001 424.486 421.884 423.418 422.117C422.351 422.351 421.371 422.925 420.603 423.766C419.834 424.608 419.312 425.679 419.103 426.845C418.893 428.01 419.005 429.218 419.425 430.314C419.845 431.41 420.554 432.345 421.461 433.001C422.369 433.657 423.434 434.005 424.523 434C425.244 434 425.958 433.845 426.624 433.543C427.29 433.241 427.895 432.799 428.404 432.241C428.913 431.684 429.316 431.022 429.59 430.294C429.864 429.566 430.003 428.787 430 428Z" fill="#4377F8"/>
<path d="M424 427.987L409.239 413.288L385.617 414.184L372.847 399C356.865 412.447 338.639 422.988 319 430.142L332.45 467" stroke="#4377F8" stroke-linecap="round" stroke-linejoin="round"/>
<path d="M257.5 367C316.318 367 364 319.542 364 261C364 202.458 316.318 155 257.5 155C198.682 155 151 202.458 151 261C151 319.542 198.682 367 257.5 367Z" stroke="#4377F8" stroke-linecap="round" stroke-linejoin="round"/>
<g clip-path="url(#clip0_702_4548)">
<path d="M176.753 308.248C186.057 324.36 229.761 316.847 275.233 290.59C320.705 264.333 349.327 230.694 340.018 214.578C330.709 198.462 287.019 205.979 241.543 232.232C196.066 258.484 167.449 292.132 176.753 308.248ZM182.113 307.101C173.415 292.057 200.857 259.923 243.353 235.372C285.849 210.822 327.404 203.135 336.102 218.203C344.8 233.271 317.381 265.391 274.857 289.941C232.333 314.492 190.81 322.179 182.113 307.101Z" fill="#4377F8"/>
<path d="M241.543 290.59C287.019 316.847 330.719 324.36 340.023 308.248C349.327 292.137 320.71 258.489 275.233 232.232C229.757 205.974 186.057 198.462 176.753 214.578C167.449 230.694 196.066 264.319 241.543 290.59ZM274.857 232.885C317.381 257.436 344.8 289.551 336.102 304.619C327.404 319.687 285.877 312 243.353 287.45C200.829 262.899 173.415 230.784 182.113 215.716C190.81 200.648 232.356 208.335 274.857 232.885Z" fill="#4377F8"/>
<path d="M336.727 247.916C336.727 249.748 336.183 251.538 335.165 253.062C334.147 254.585 332.701 255.772 331.008 256.473C329.315 257.174 327.453 257.357 325.656 256.999C323.86 256.641 322.209 255.759 320.914 254.463C319.619 253.167 318.737 251.516 318.381 249.72C318.024 247.923 318.208 246.06 318.909 244.368C319.611 242.676 320.799 241.23 322.323 240.212C323.846 239.195 325.638 238.653 327.47 238.654C329.925 238.655 332.28 239.631 334.016 241.368C335.751 243.105 336.727 245.46 336.727 247.916Z" fill="url(#paint0_radial_702_4548)"/>
<path d="M336.727 247.916C336.727 249.748 336.183 251.538 335.165 253.062C334.147 254.585 332.701 255.772 331.008 256.473C329.315 257.174 327.453 257.357 325.656 256.999C323.86 256.641 322.209 255.759 320.914 254.463C319.619 253.167 318.737 251.516 318.381 249.72C318.024 247.923 318.208 246.06 318.909 244.368C319.611 242.676 320.799 241.23 322.323 240.212C323.846 239.195 325.638 238.653 327.47 238.654C329.925 238.655 332.28 239.631 334.016 241.368C335.751 243.105 336.727 245.46 336.727 247.916Z" fill="url(#paint1_radial_702_4548)"/>
<path d="M279.543 261.413C279.543 265.598 278.302 269.688 275.978 273.167C273.653 276.646 270.349 279.358 266.483 280.959C262.617 282.56 258.363 282.979 254.259 282.163C250.155 281.347 246.386 279.332 243.427 276.373C240.468 273.414 238.453 269.644 237.637 265.541C236.821 261.437 237.24 257.183 238.841 253.317C240.442 249.451 243.154 246.147 246.633 243.822C250.112 241.498 254.202 240.257 258.387 240.257C263.998 240.257 269.379 242.486 273.346 246.453C277.314 250.421 279.543 255.802 279.543 261.413Z" fill="url(#paint2_radial_702_4548)"/>
<path d="M224.699 261.413C224.699 313.923 239.781 355.784 258.389 355.784C276.997 355.784 292.065 313.923 292.065 261.413C292.065 208.903 277.021 167.037 258.389 167.037C239.758 167.037 224.699 208.903 224.699 261.413ZM291.332 261.413C291.332 310.514 277.228 350.316 259.833 350.316C242.438 350.316 228.333 310.514 228.333 261.413C228.333 212.312 242.438 172.505 259.833 172.505C277.228 172.505 291.332 212.312 291.332 261.413Z" fill="#4377F8"/>
<path d="M245.102 326.927C245.103 328.759 244.56 330.55 243.543 332.074C242.526 333.598 241.08 334.786 239.387 335.487C237.695 336.189 235.833 336.373 234.036 336.016C232.239 335.659 230.588 334.778 229.292 333.483C227.997 332.188 227.114 330.537 226.756 328.74C226.399 326.944 226.582 325.081 227.283 323.389C227.984 321.696 229.171 320.249 230.694 319.231C232.217 318.213 234.008 317.67 235.84 317.67C238.295 317.67 240.65 318.645 242.387 320.381C244.124 322.117 245.1 324.472 245.102 326.927Z" fill="url(#paint3_radial_702_4548)"/>
<path d="M245.102 326.927C245.103 328.759 244.56 330.55 243.543 332.074C242.526 333.598 241.08 334.786 239.387 335.487C237.695 336.189 235.833 336.373 234.036 336.016C232.239 335.659 230.588 334.778 229.292 333.483C227.997 332.188 227.114 330.537 226.756 328.74C226.399 326.944 226.582 325.081 227.283 323.389C227.984 321.696 229.171 320.249 230.694 319.231C232.217 318.213 234.008 317.67 235.84 317.67C238.295 317.67 240.65 318.645 242.387 320.381C244.124 322.117 245.1 324.472 245.102 326.927Z" fill="url(#paint4_radial_702_4548)"/>
<path d="M235.484 317.915C235.065 316.481 234.515 314.393 234.139 312.884H230.105C230.547 314.765 231.163 317.238 231.648 319.033C231.817 319.598 232.879 319.654 233.947 319.344C235.014 319.033 235.62 318.469 235.484 317.915Z" fill="#4377F8"/>
<path d="M222.012 208.781C222.012 210.613 221.468 212.404 220.451 213.927C219.433 215.45 217.986 216.637 216.293 217.338C214.601 218.039 212.738 218.222 210.941 217.865C209.145 217.507 207.494 216.624 206.199 215.329C204.904 214.033 204.023 212.382 203.666 210.585C203.309 208.788 203.493 206.926 204.195 205.234C204.896 203.541 206.084 202.095 207.608 201.078C209.132 200.061 210.923 199.518 212.755 199.519C215.21 199.521 217.565 200.497 219.301 202.234C221.037 203.971 222.012 206.326 222.012 208.781Z" fill="url(#paint5_radial_702_4548)"/>
<path d="M222.012 208.781C222.012 210.613 221.468 212.404 220.451 213.927C219.433 215.45 217.986 216.637 216.293 217.338C214.601 218.039 212.738 218.222 210.941 217.865C209.145 217.507 207.494 216.624 206.199 215.329C204.904 214.033 204.023 212.382 203.666 210.585C203.309 208.788 203.493 206.926 204.195 205.234C204.896 203.541 206.084 202.095 207.608 201.078C209.132 200.061 210.923 199.518 212.755 199.519C215.21 199.521 217.565 200.497 219.301 202.234C221.037 203.971 222.012 206.326 222.012 208.781Z" fill="url(#paint6_radial_702_4548)"/>
<path d="M322.552 252.927C321.316 254.3 320.018 255.678 318.641 257.069L319.449 258.009C320.872 256.63 322.234 255.258 323.535 253.891C323.666 253.757 323.74 253.576 323.74 253.388C323.74 253.2 323.666 253.019 323.535 252.885C323.47 252.818 323.392 252.766 323.306 252.732C323.219 252.697 323.127 252.682 323.034 252.686C322.941 252.69 322.85 252.713 322.767 252.755C322.684 252.796 322.611 252.855 322.552 252.927Z" fill="#4377F8"/>
<path d="M220.846 210.497C222.498 210.88 224.179 211.304 225.891 211.771L226.187 210.76C224.454 210.259 222.747 209.798 221.067 209.378C220.818 209.312 220.555 209.576 220.493 209.886C220.472 209.949 220.464 210.016 220.471 210.083C220.478 210.149 220.498 210.213 220.532 210.271C220.565 210.329 220.61 210.379 220.665 210.418C220.719 210.457 220.781 210.484 220.846 210.497Z" fill="#4377F8"/>
</g>
<defs>
<radialGradient id="paint0_radial_702_4548" cx="0" cy="0" r="1" gradientUnits="userSpaceOnUse" gradientTransform="translate(327.441 247.916) scale(9.26173 9.26174)">
<stop stop-color="#00C4FF"/>
<stop offset="0.15" stop-color="#01C1FB"/>
<stop offset="0.29" stop-color="#03B8EF"/>
<stop offset="0.44" stop-color="#06AADB"/>
<stop offset="0.58" stop-color="#0A95BF"/>
<stop offset="0.73" stop-color="#107B9B"/>
<stop offset="0.87" stop-color="#175B70"/>
<stop offset="1" stop-color="#1E3942"/>
</radialGradient>
<radialGradient id="paint1_radial_702_4548" cx="0" cy="0" r="1" gradientUnits="userSpaceOnUse" gradientTransform="translate(327.465 247.916) scale(9.26173 9.26174)">
<stop offset="0.1875" stop-color="#1444BC"/>
<stop offset="0.614583" stop-color="#2056DB"/>
<stop offset="1" stop-color="#4377F8"/>
<stop offset="1" stop-color="#062A84"/>
</radialGradient>
<radialGradient id="paint2_radial_702_4548" cx="0" cy="0" r="1" gradientUnits="userSpaceOnUse" gradientTransform="translate(258.387 261.413) scale(21.1563)">
<stop offset="0.1875" stop-color="#1444BC"/>
<stop offset="0.614583" stop-color="#2056DB"/>
<stop offset="1" stop-color="#4377F8"/>
<stop offset="1" stop-color="#062A84"/>
</radialGradient>
<radialGradient id="paint3_radial_702_4548" cx="0" cy="0" r="1" gradientUnits="userSpaceOnUse" gradientTransform="translate(235.84 326.927) scale(9.26174 9.26173)">
<stop stop-color="#00C4FF"/>
<stop offset="0.15" stop-color="#01C1FB"/>
<stop offset="0.29" stop-color="#03B8EF"/>
<stop offset="0.44" stop-color="#06AADB"/>
<stop offset="0.58" stop-color="#0A95BF"/>
<stop offset="0.73" stop-color="#107B9B"/>
<stop offset="0.87" stop-color="#175B70"/>
<stop offset="1" stop-color="#1E3942"/>
</radialGradient>
<radialGradient id="paint4_radial_702_4548" cx="0" cy="0" r="1" gradientUnits="userSpaceOnUse" gradientTransform="translate(235.84 326.932) scale(9.26174 9.26173)">
<stop offset="0.1875" stop-color="#1444BC"/>
<stop offset="0.614583" stop-color="#2056DB"/>
<stop offset="1" stop-color="#4377F8"/>
<stop offset="1" stop-color="#062A84"/>
</radialGradient>
<radialGradient id="paint5_radial_702_4548" cx="0" cy="0" r="1" gradientUnits="userSpaceOnUse" gradientTransform="translate(212.755 208.781) scale(9.26174)">
<stop stop-color="#00C4FF"/>
<stop offset="0.15" stop-color="#01C1FB"/>
<stop offset="0.29" stop-color="#03B8EF"/>
<stop offset="0.44" stop-color="#06AADB"/>
<stop offset="0.58" stop-color="#0A95BF"/>
<stop offset="0.73" stop-color="#107B9B"/>
<stop offset="0.87" stop-color="#175B70"/>
<stop offset="1" stop-color="#1E3942"/>
</radialGradient>
<radialGradient id="paint6_radial_702_4548" cx="0" cy="0" r="1" gradientUnits="userSpaceOnUse" gradientTransform="translate(212.75 208.781) scale(9.26174)">
<stop offset="0.1875" stop-color="#1444BC"/>
<stop offset="0.614583" stop-color="#2056DB"/>
<stop offset="1" stop-color="#4377F8"/>
<stop offset="1" stop-color="#062A84"/>
</radialGradient>
<clipPath id="clip0_702_4548">
<rect width="166.81" height="188.784" fill="white" transform="translate(175 167)"/>
</clipPath>
</defs>
</svg>
