<svg width="55" height="54" viewBox="0 0 55 54" fill="none" xmlns="http://www.w3.org/2000/svg">
<rect x="2.98047" y="6.5" width="45" height="45" rx="22.5" fill="white" fill-opacity="0.05" stroke="white"/>
<g filter="url(#filter0_f_711_1034)">
<rect x="4.98047" y="4.5" width="45" height="45" rx="22.5" stroke="#4377F8"/>
</g>
<g clip-path="url(#clip0_711_1034)">
<path d="M37.124 21.9376C36.289 22.3076 35.392 22.5576 34.449 22.6706C35.422 22.0884 36.1499 21.172 36.497 20.0926C35.5828 20.6356 34.5823 21.0178 33.539 21.2226C32.8373 20.4734 31.908 19.9769 30.8953 19.81C29.8826 19.6432 28.8431 19.8154 27.9382 20.2998C27.0333 20.7843 26.3137 21.5539 25.8911 22.4893C25.4685 23.4246 25.3665 24.4733 25.601 25.4726C23.7487 25.3796 21.9366 24.8981 20.2824 24.0595C18.6282 23.2208 17.1688 22.0437 15.999 20.6046C15.599 21.2946 15.369 22.0946 15.369 22.9466C15.3685 23.7136 15.5574 24.4688 15.9188 25.1453C16.2803 25.8218 16.8031 26.3986 17.441 26.8246C16.7012 26.801 15.9778 26.6011 15.331 26.2416V26.3016C15.3309 27.3773 15.703 28.4199 16.3842 29.2526C17.0653 30.0852 18.0135 30.6565 19.068 30.8696C18.3818 31.0553 17.6623 31.0826 16.964 30.9496C17.2615 31.8752 17.841 32.6846 18.6213 33.2645C19.4017 33.8444 20.3439 34.1657 21.316 34.1836C19.6658 35.479 17.6279 36.1817 15.53 36.1786C15.1583 36.1787 14.787 36.157 14.418 36.1136C16.5474 37.4827 19.0263 38.2094 21.558 38.2066C30.128 38.2066 34.813 31.1086 34.813 24.9526C34.813 24.7526 34.808 24.5506 34.799 24.3506C35.7103 23.6915 36.4969 22.8755 37.122 21.9406L37.124 21.9376V21.9376Z" fill="white"/>
</g>
<defs>
<filter id="filter0_f_711_1034" x="0.480469" y="0" width="54" height="54" filterUnits="userSpaceOnUse" color-interpolation-filters="sRGB">
<feFlood flood-opacity="0" result="BackgroundImageFix"/>
<feBlend mode="normal" in="SourceGraphic" in2="BackgroundImageFix" result="shape"/>
<feGaussianBlur stdDeviation="2" result="effect1_foregroundBlur_711_1034"/>
</filter>
<clipPath id="clip0_711_1034">
<rect width="24" height="24" fill="white" transform="translate(13.4805 17)"/>
</clipPath>
</defs>
</svg>
